<svg xmlns="http://www.w3.org/2000/svg" xmlns:xlink="http://www.w3.org/1999/xlink" width="500" zoomAndPan="magnify" viewBox="0 0 375 374.999991" height="500" preserveAspectRatio="xMidYMid meet" version="1.0"><defs><clipPath id="e8eec124d8"><path d="M 103.976562 111.257812 L 283.976562 111.257812 L 283.976562 291.257812 L 103.976562 291.257812 Z M 103.976562 111.257812 " clip-rule="nonzero"/></clipPath><clipPath id="ab400b66b3"><path d="M 223 20 L 353 20 L 353 153.023438 L 223 153.023438 Z M 223 20 " clip-rule="nonzero"/></clipPath><clipPath id="849cde6e6f"><path d="M 273 320 L 313.398438 320 L 313.398438 367 L 273 367 Z M 273 320 " clip-rule="nonzero"/></clipPath><clipPath id="f10100e810"><path d="M 61.398438 295 L 260 295 L 260 367 L 61.398438 367 Z M 61.398438 295 " clip-rule="nonzero"/></clipPath><clipPath id="6f1bebde40"><path d="M 12.550781 11 L 155 11 L 155 138 L 12.550781 138 Z M 12.550781 11 " clip-rule="nonzero"/></clipPath></defs><path fill="#ffffff" d="M 182.296875 283.074219 C 181.640625 283.078125 181.007812 282.964844 180.390625 282.742188 C 179.777344 282.515625 179.21875 282.195312 178.71875 281.769531 C 178.222656 281.347656 177.808594 280.851562 177.488281 280.28125 C 177.164062 279.710938 176.953125 279.101562 176.847656 278.457031 L 174.296875 263.238281 L 164.078125 258.988281 L 151.511719 267.949219 C 150.554688 268.652344 149.480469 269.003906 148.292969 269.003906 C 147.554688 269.003906 146.84375 268.863281 146.164062 268.574219 C 145.484375 268.289062 144.882812 267.886719 144.367188 267.359375 L 127.867188 250.851562 C 127.402344 250.390625 127.03125 249.863281 126.753906 249.269531 C 126.472656 248.675781 126.308594 248.050781 126.253906 247.398438 C 126.199219 246.742188 126.261719 246.101562 126.4375 245.46875 C 126.613281 244.835938 126.894531 244.253906 127.277344 243.722656 L 136.277344 231.132812 L 132.023438 220.929688 L 116.769531 218.390625 C 116.125 218.289062 115.515625 218.074219 114.945312 217.75 C 114.375 217.429688 113.878906 217.015625 113.457031 216.515625 C 113.035156 216.015625 112.710938 215.460938 112.488281 214.84375 C 112.265625 214.226562 112.15625 213.59375 112.160156 212.9375 L 112.160156 189.574219 C 112.15625 188.921875 112.269531 188.285156 112.492188 187.671875 C 112.71875 187.054688 113.039062 186.5 113.464844 186 C 113.886719 185.5 114.382812 185.089844 114.953125 184.769531 C 115.523438 184.445312 116.132812 184.230469 116.777344 184.125 L 131.996094 181.578125 L 136.246094 171.359375 L 127.285156 158.792969 C 126.898438 158.261719 126.617188 157.679688 126.441406 157.046875 C 126.265625 156.414062 126.203125 155.769531 126.257812 155.117188 C 126.308594 154.460938 126.476562 153.835938 126.753906 153.242188 C 127.03125 152.644531 127.402344 152.117188 127.867188 151.65625 L 144.382812 135.148438 C 144.84375 134.679688 145.367188 134.308594 145.960938 134.027344 C 146.554688 133.75 147.179688 133.582031 147.832031 133.527344 C 148.484375 133.476562 149.128906 133.535156 149.757812 133.714844 C 150.390625 133.890625 150.972656 134.171875 151.5 134.558594 L 164.078125 143.527344 L 174.304688 139.277344 L 176.847656 124.058594 C 176.949219 123.414062 177.164062 122.804688 177.484375 122.234375 C 177.804688 121.664062 178.21875 121.164062 178.71875 120.742188 C 179.214844 120.316406 179.773438 119.992188 180.390625 119.769531 C 181.003906 119.546875 181.640625 119.433594 182.296875 119.4375 L 205.660156 119.4375 C 206.3125 119.4375 206.949219 119.546875 207.5625 119.773438 C 208.179688 119.996094 208.734375 120.320312 209.234375 120.742188 C 209.734375 121.167969 210.144531 121.664062 210.46875 122.234375 C 210.789062 122.804688 211.003906 123.410156 211.109375 124.058594 L 213.65625 139.277344 L 223.875 143.527344 L 236.441406 134.5625 C 236.972656 134.175781 237.554688 133.890625 238.1875 133.714844 C 238.820312 133.535156 239.46875 133.472656 240.121094 133.527344 C 240.777344 133.582031 241.40625 133.75 242 134.03125 C 242.597656 134.308594 243.125 134.683594 243.585938 135.15625 L 260.085938 151.664062 C 260.554688 152.125 260.925781 152.652344 261.203125 153.246094 C 261.480469 153.839844 261.644531 154.464844 261.699219 155.117188 C 261.753906 155.769531 261.695312 156.414062 261.515625 157.046875 C 261.339844 157.675781 261.0625 158.257812 260.675781 158.789062 L 251.707031 171.359375 L 255.957031 181.585938 L 271.175781 184.125 C 271.820312 184.230469 272.429688 184.445312 273 184.765625 C 273.570312 185.085938 274.066406 185.496094 274.492188 185.996094 C 274.914062 186.496094 275.238281 187.054688 275.460938 187.671875 C 275.6875 188.285156 275.796875 188.921875 275.792969 189.574219 L 275.792969 212.9375 C 275.796875 213.59375 275.683594 214.226562 275.460938 214.84375 C 275.234375 215.457031 274.910156 216.015625 274.488281 216.515625 C 274.066406 217.011719 273.566406 217.425781 273 217.746094 C 272.429688 218.070312 271.820312 218.28125 271.175781 218.386719 L 255.929688 220.925781 L 251.675781 231.128906 L 260.675781 243.71875 C 261.058594 244.253906 261.339844 244.835938 261.511719 245.46875 C 261.6875 246.097656 261.75 246.742188 261.695312 247.394531 C 261.640625 248.050781 261.476562 248.675781 261.199219 249.269531 C 260.921875 249.863281 260.550781 250.394531 260.085938 250.855469 L 243.570312 267.367188 C 243.058594 267.886719 242.464844 268.292969 241.789062 268.574219 C 241.117188 268.859375 240.410156 269 239.679688 269.003906 C 238.488281 269 237.410156 268.652344 236.445312 267.957031 L 223.851562 258.957031 L 213.648438 263.210938 L 211.113281 278.460938 C 211.007812 279.109375 210.792969 279.71875 210.472656 280.285156 C 210.148438 280.855469 209.738281 281.355469 209.238281 281.777344 C 208.738281 282.199219 208.179688 282.523438 207.5625 282.746094 C 206.949219 282.96875 206.3125 283.078125 205.660156 283.074219 Z M 182.296875 283.074219 " fill-opacity="1" fill-rule="nonzero"/><path fill="#6e96f9" d="M 226.703125 201.257812 C 226.703125 202.328125 226.652344 203.398438 226.546875 204.464844 C 226.441406 205.53125 226.285156 206.589844 226.074219 207.640625 C 225.867188 208.691406 225.605469 209.730469 225.296875 210.757812 C 224.984375 211.78125 224.625 212.789062 224.214844 213.78125 C 223.804688 214.773438 223.34375 215.738281 222.839844 216.683594 C 222.335938 217.628906 221.785156 218.546875 221.1875 219.4375 C 220.59375 220.332031 219.957031 221.191406 219.277344 222.019531 C 218.597656 222.847656 217.875 223.640625 217.117188 224.398438 C 216.359375 225.15625 215.566406 225.875 214.738281 226.554688 C 213.910156 227.234375 213.050781 227.875 212.160156 228.46875 C 211.269531 229.0625 210.351562 229.613281 209.40625 230.121094 C 208.460938 230.625 207.492188 231.082031 206.5 231.492188 C 205.511719 231.902344 204.503906 232.265625 203.476562 232.574219 C 202.453125 232.886719 201.414062 233.144531 200.363281 233.355469 C 199.3125 233.566406 198.25 233.722656 197.183594 233.828125 C 196.117188 233.933594 195.050781 233.984375 193.976562 233.984375 C 192.90625 233.984375 191.835938 233.933594 190.769531 233.828125 C 189.703125 233.722656 188.644531 233.566406 187.59375 233.355469 C 186.542969 233.144531 185.503906 232.886719 184.476562 232.574219 C 183.453125 232.265625 182.441406 231.902344 181.453125 231.492188 C 180.460938 231.082031 179.496094 230.625 178.550781 230.121094 C 177.605469 229.613281 176.6875 229.0625 175.796875 228.46875 C 174.902344 227.875 174.042969 227.234375 173.214844 226.554688 C 172.386719 225.875 171.59375 225.15625 170.835938 224.398438 C 170.078125 223.640625 169.359375 222.847656 168.679688 222.019531 C 168 221.191406 167.359375 220.332031 166.765625 219.4375 C 166.171875 218.546875 165.621094 217.628906 165.113281 216.683594 C 164.609375 215.738281 164.152344 214.773438 163.742188 213.78125 C 163.332031 212.789062 162.96875 211.78125 162.660156 210.757812 C 162.347656 209.730469 162.089844 208.691406 161.878906 207.640625 C 161.667969 206.589844 161.511719 205.53125 161.40625 204.464844 C 161.300781 203.398438 161.25 202.328125 161.25 201.257812 C 161.25 200.183594 161.300781 199.117188 161.40625 198.050781 C 161.511719 196.984375 161.667969 195.921875 161.878906 194.871094 C 162.089844 193.820312 162.347656 192.78125 162.660156 191.757812 C 162.96875 190.730469 163.332031 189.722656 163.742188 188.734375 C 164.152344 187.742188 164.609375 186.773438 165.113281 185.828125 C 165.621094 184.882812 166.171875 183.964844 166.765625 183.074219 C 167.359375 182.183594 168 181.324219 168.679688 180.496094 C 169.359375 179.667969 170.078125 178.875 170.835938 178.117188 C 171.59375 177.359375 172.386719 176.636719 173.214844 175.957031 C 174.042969 175.277344 174.902344 174.640625 175.796875 174.046875 C 176.6875 173.449219 177.605469 172.898438 178.550781 172.394531 C 179.496094 171.890625 180.460938 171.429688 181.453125 171.019531 C 182.441406 170.609375 183.453125 170.25 184.476562 169.9375 C 185.503906 169.628906 186.542969 169.367188 187.59375 169.160156 C 188.644531 168.949219 189.703125 168.792969 190.769531 168.6875 C 191.835938 168.582031 192.90625 168.53125 193.976562 168.53125 C 195.050781 168.53125 196.117188 168.582031 197.183594 168.6875 C 198.25 168.792969 199.3125 168.949219 200.363281 169.160156 C 201.414062 169.367188 202.453125 169.628906 203.476562 169.9375 C 204.503906 170.25 205.511719 170.609375 206.5 171.019531 C 207.492188 171.429688 208.460938 171.890625 209.40625 172.394531 C 210.351562 172.898438 211.269531 173.449219 212.160156 174.046875 C 213.050781 174.640625 213.910156 175.277344 214.738281 175.957031 C 215.566406 176.636719 216.359375 177.359375 217.117188 178.117188 C 217.875 178.875 218.597656 179.667969 219.277344 180.496094 C 219.957031 181.324219 220.59375 182.183594 221.1875 183.074219 C 221.785156 183.964844 222.335938 184.882812 222.839844 185.828125 C 223.34375 186.773438 223.804688 187.742188 224.214844 188.734375 C 224.625 189.722656 224.984375 190.730469 225.296875 191.757812 C 225.605469 192.78125 225.867188 193.820312 226.074219 194.871094 C 226.285156 195.921875 226.441406 196.984375 226.546875 198.050781 C 226.652344 199.117188 226.703125 200.183594 226.703125 201.257812 Z M 226.703125 201.257812 " fill-opacity="1" fill-rule="nonzero"/><path fill="#274193" d="M 193.976562 160.347656 C 192.636719 160.347656 191.300781 160.414062 189.96875 160.546875 C 188.632812 160.675781 187.308594 160.871094 185.996094 161.132812 C 184.683594 161.394531 183.382812 161.71875 182.101562 162.109375 C 180.820312 162.5 179.558594 162.949219 178.320312 163.460938 C 177.085938 163.976562 175.875 164.546875 174.691406 165.179688 C 173.511719 165.808594 172.363281 166.496094 171.25 167.242188 C 170.136719 167.988281 169.058594 168.785156 168.023438 169.632812 C 166.988281 170.484375 165.996094 171.382812 165.050781 172.328125 C 164.101562 173.277344 163.203125 174.269531 162.355469 175.304688 C 161.503906 176.339844 160.707031 177.414062 159.960938 178.527344 C 159.21875 179.644531 158.53125 180.792969 157.898438 181.972656 C 157.265625 183.152344 156.695312 184.363281 156.183594 185.601562 C 155.667969 186.839844 155.21875 188.101562 154.828125 189.382812 C 154.441406 190.664062 154.117188 191.960938 153.855469 193.277344 C 153.59375 194.589844 153.398438 195.914062 153.265625 197.246094 C 153.132812 198.582031 153.066406 199.917969 153.066406 201.257812 C 153.066406 202.597656 153.132812 203.933594 153.265625 205.265625 C 153.398438 206.601562 153.59375 207.925781 153.855469 209.238281 C 154.117188 210.550781 154.441406 211.851562 154.828125 213.132812 C 155.21875 214.414062 155.667969 215.675781 156.183594 216.914062 C 156.695312 218.148438 157.265625 219.359375 157.898438 220.542969 C 158.53125 221.722656 159.21875 222.871094 159.960938 223.984375 C 160.707031 225.097656 161.503906 226.171875 162.355469 227.210938 C 163.203125 228.246094 164.101562 229.238281 165.050781 230.183594 C 165.996094 231.132812 166.988281 232.03125 168.023438 232.878906 C 169.058594 233.730469 170.136719 234.527344 171.25 235.273438 C 172.363281 236.015625 173.511719 236.703125 174.691406 237.335938 C 175.875 237.96875 177.085938 238.539062 178.320312 239.050781 C 179.558594 239.566406 180.820312 240.015625 182.101562 240.40625 C 183.382812 240.792969 184.683594 241.117188 185.996094 241.378906 C 187.308594 241.640625 188.632812 241.835938 189.96875 241.96875 C 191.300781 242.101562 192.636719 242.167969 193.976562 242.167969 C 195.316406 242.167969 196.652344 242.101562 197.988281 241.96875 C 199.320312 241.835938 200.644531 241.640625 201.957031 241.378906 C 203.273438 241.117188 204.570312 240.792969 205.851562 240.40625 C 207.132812 240.015625 208.394531 239.566406 209.632812 239.050781 C 210.871094 238.539062 212.078125 237.96875 213.261719 237.335938 C 214.441406 236.703125 215.589844 236.015625 216.707031 235.273438 C 217.820312 234.527344 218.894531 233.730469 219.929688 232.878906 C 220.964844 232.03125 221.957031 231.132812 222.90625 230.183594 C 223.851562 229.238281 224.75 228.246094 225.601562 227.210938 C 226.449219 226.171875 227.246094 225.097656 227.992188 223.984375 C 228.734375 222.871094 229.425781 221.722656 230.054688 220.542969 C 230.6875 219.359375 231.257812 218.148438 231.773438 216.914062 C 232.285156 215.675781 232.734375 214.414062 233.125 213.132812 C 233.515625 211.851562 233.839844 210.550781 234.101562 209.238281 C 234.363281 207.925781 234.558594 206.601562 234.6875 205.265625 C 234.820312 203.933594 234.886719 202.597656 234.886719 201.257812 C 234.886719 199.917969 234.816406 198.582031 234.683594 197.25 C 234.550781 195.914062 234.355469 194.59375 234.09375 193.28125 C 233.828125 191.964844 233.503906 190.667969 233.113281 189.386719 C 232.722656 188.105469 232.273438 186.847656 231.757812 185.609375 C 231.246094 184.371094 230.671875 183.164062 230.042969 181.980469 C 229.410156 180.800781 228.722656 179.652344 227.976562 178.539062 C 227.234375 177.425781 226.433594 176.351562 225.585938 175.316406 C 224.734375 174.28125 223.835938 173.292969 222.890625 172.34375 C 221.941406 171.398438 220.953125 170.5 219.917969 169.648438 C 218.882812 168.796875 217.808594 168 216.695312 167.257812 C 215.582031 166.511719 214.433594 165.824219 213.253906 165.191406 C 212.070312 164.5625 210.863281 163.988281 209.625 163.476562 C 208.386719 162.960938 207.128906 162.511719 205.847656 162.121094 C 204.566406 161.730469 203.269531 161.40625 201.953125 161.140625 C 200.640625 160.878906 199.316406 160.683594 197.984375 160.550781 C 196.652344 160.417969 195.316406 160.347656 193.976562 160.347656 Z M 193.976562 225.800781 C 193.171875 225.800781 192.371094 225.761719 191.570312 225.683594 C 190.769531 225.605469 189.976562 225.488281 189.1875 225.332031 C 188.398438 225.175781 187.621094 224.980469 186.851562 224.746094 C 186.082031 224.511719 185.328125 224.242188 184.585938 223.933594 C 183.839844 223.625 183.117188 223.28125 182.40625 222.902344 C 181.699219 222.523438 181.007812 222.113281 180.339844 221.664062 C 179.671875 221.21875 179.027344 220.742188 178.40625 220.230469 C 177.785156 219.722656 177.1875 219.183594 176.621094 218.613281 C 176.050781 218.042969 175.511719 217.449219 175.003906 216.828125 C 174.492188 216.207031 174.015625 215.5625 173.570312 214.894531 C 173.121094 214.226562 172.710938 213.535156 172.332031 212.828125 C 171.949219 212.117188 171.609375 211.394531 171.300781 210.648438 C 170.992188 209.90625 170.722656 209.152344 170.488281 208.382812 C 170.253906 207.613281 170.058594 206.835938 169.902344 206.046875 C 169.746094 205.257812 169.628906 204.464844 169.550781 203.664062 C 169.472656 202.863281 169.433594 202.0625 169.433594 201.257812 C 169.433594 200.453125 169.472656 199.652344 169.550781 198.851562 C 169.628906 198.050781 169.746094 197.257812 169.902344 196.46875 C 170.058594 195.679688 170.253906 194.902344 170.488281 194.132812 C 170.722656 193.363281 170.992188 192.605469 171.300781 191.863281 C 171.609375 191.121094 171.949219 190.394531 172.332031 189.6875 C 172.710938 188.976562 173.121094 188.289062 173.570312 187.621094 C 174.015625 186.953125 174.492188 186.308594 175.003906 185.6875 C 175.511719 185.0625 176.050781 184.46875 176.621094 183.902344 C 177.1875 183.332031 177.785156 182.792969 178.40625 182.28125 C 179.027344 181.773438 179.671875 181.292969 180.339844 180.847656 C 181.007812 180.402344 181.699219 179.988281 182.40625 179.609375 C 183.117188 179.230469 183.839844 178.886719 184.585938 178.578125 C 185.328125 178.273438 186.082031 178 186.851562 177.769531 C 187.621094 177.535156 188.398438 177.339844 189.1875 177.183594 C 189.976562 177.027344 190.769531 176.910156 191.570312 176.828125 C 192.371094 176.75 193.171875 176.710938 193.976562 176.710938 C 194.78125 176.710938 195.582031 176.75 196.382812 176.828125 C 197.183594 176.910156 197.976562 177.027344 198.765625 177.183594 C 199.554688 177.339844 200.332031 177.535156 201.101562 177.769531 C 201.871094 178 202.628906 178.273438 203.371094 178.578125 C 204.113281 178.886719 204.839844 179.230469 205.546875 179.609375 C 206.257812 179.988281 206.945312 180.402344 207.613281 180.847656 C 208.28125 181.292969 208.925781 181.773438 209.546875 182.28125 C 210.171875 182.792969 210.765625 183.332031 211.332031 183.902344 C 211.902344 184.46875 212.441406 185.0625 212.949219 185.6875 C 213.460938 186.308594 213.9375 186.953125 214.386719 187.621094 C 214.832031 188.289062 215.246094 188.976562 215.625 189.6875 C 216.003906 190.394531 216.347656 191.121094 216.652344 191.863281 C 216.960938 192.605469 217.234375 193.363281 217.464844 194.132812 C 217.699219 194.902344 217.894531 195.679688 218.050781 196.46875 C 218.207031 197.257812 218.324219 198.050781 218.40625 198.851562 C 218.484375 199.652344 218.523438 200.453125 218.523438 201.257812 C 218.523438 202.0625 218.480469 202.863281 218.402344 203.660156 C 218.324219 204.460938 218.203125 205.253906 218.046875 206.042969 C 217.890625 206.832031 217.695312 207.609375 217.460938 208.378906 C 217.226562 209.148438 216.953125 209.902344 216.648438 210.644531 C 216.339844 211.386719 215.996094 212.113281 215.617188 212.824219 C 215.238281 213.53125 214.824219 214.21875 214.378906 214.886719 C 213.929688 215.554688 213.453125 216.199219 212.941406 216.820312 C 212.433594 217.441406 211.894531 218.039062 211.324219 218.605469 C 210.757812 219.171875 210.164062 219.710938 209.542969 220.222656 C 208.921875 220.734375 208.277344 221.210938 207.609375 221.65625 C 206.941406 222.105469 206.25 222.515625 205.542969 222.894531 C 204.832031 223.273438 204.109375 223.617188 203.367188 223.925781 C 202.625 224.234375 201.867188 224.503906 201.097656 224.738281 C 200.332031 224.972656 199.550781 225.167969 198.765625 225.328125 C 197.976562 225.484375 197.183594 225.601562 196.382812 225.683594 C 195.582031 225.761719 194.78125 225.800781 193.976562 225.800781 Z M 193.976562 225.800781 " fill-opacity="1" fill-rule="nonzero"/><g clip-path="url(#e8eec124d8)"><path fill="#274193" d="M 272.527344 176.058594 L 261.773438 174.257812 L 261.007812 172.410156 L 267.332031 163.542969 C 267.804688 162.886719 268.214844 162.199219 268.5625 161.472656 C 268.910156 160.746094 269.195312 159.992188 269.410156 159.214844 C 269.625 158.441406 269.769531 157.648438 269.847656 156.847656 C 269.921875 156.046875 269.925781 155.242188 269.859375 154.4375 C 269.792969 153.636719 269.65625 152.84375 269.449219 152.066406 C 269.246094 151.285156 268.972656 150.53125 268.628906 149.800781 C 268.289062 149.070312 267.886719 148.375 267.425781 147.714844 C 266.960938 147.058594 266.445312 146.445312 265.871094 145.875 L 249.371094 129.371094 C 248.804688 128.796875 248.191406 128.28125 247.53125 127.816406 C 246.871094 127.351562 246.175781 126.949219 245.445312 126.609375 C 244.710938 126.269531 243.957031 125.996094 243.175781 125.789062 C 242.398438 125.582031 241.605469 125.445312 240.800781 125.378906 C 240 125.308594 239.195312 125.3125 238.390625 125.390625 C 237.589844 125.464844 236.800781 125.609375 236.023438 125.824219 C 235.246094 126.039062 234.492188 126.320312 233.765625 126.667969 C 233.035156 127.019531 232.34375 127.425781 231.691406 127.898438 L 222.820312 134.226562 L 220.976562 133.460938 L 219.175781 122.722656 C 219.046875 121.925781 218.851562 121.148438 218.582031 120.390625 C 218.316406 119.628906 217.984375 118.898438 217.589844 118.195312 C 217.191406 117.496094 216.738281 116.832031 216.222656 116.210938 C 215.710938 115.589844 215.144531 115.019531 214.53125 114.5 C 213.917969 113.976562 213.261719 113.515625 212.5625 113.109375 C 211.867188 112.703125 211.140625 112.363281 210.382812 112.085938 C 209.628906 111.808594 208.851562 111.601562 208.058594 111.460938 C 207.265625 111.324219 206.464844 111.253906 205.660156 111.257812 L 182.296875 111.257812 C 181.492188 111.253906 180.691406 111.324219 179.898438 111.460938 C 179.105469 111.601562 178.332031 111.808594 177.574219 112.085938 C 176.816406 112.359375 176.089844 112.699219 175.394531 113.105469 C 174.699219 113.507812 174.042969 113.972656 173.429688 114.492188 C 172.8125 115.011719 172.25 115.582031 171.734375 116.203125 C 171.222656 116.824219 170.765625 117.484375 170.371094 118.183594 C 169.972656 118.886719 169.640625 119.617188 169.375 120.375 C 169.105469 121.136719 168.90625 121.910156 168.777344 122.707031 L 166.976562 133.460938 L 165.132812 134.226562 L 156.261719 127.902344 C 155.609375 127.429688 154.917969 127.019531 154.191406 126.671875 C 153.464844 126.324219 152.714844 126.039062 151.9375 125.824219 C 151.160156 125.609375 150.371094 125.464844 149.566406 125.386719 C 148.765625 125.3125 147.960938 125.308594 147.160156 125.375 C 146.355469 125.441406 145.566406 125.578125 144.785156 125.785156 C 144.007812 125.988281 143.253906 126.261719 142.523438 126.605469 C 141.792969 126.945312 141.097656 127.347656 140.4375 127.808594 C 139.777344 128.273438 139.164062 128.789062 138.597656 129.363281 L 122.089844 145.867188 C 121.519531 146.433594 121 147.046875 120.535156 147.707031 C 120.070312 148.367188 119.667969 149.0625 119.328125 149.792969 C 118.988281 150.523438 118.710938 151.28125 118.503906 152.058594 C 118.296875 152.839844 118.160156 153.632812 118.09375 154.433594 C 118.027344 155.238281 118.03125 156.042969 118.105469 156.847656 C 118.183594 157.648438 118.328125 158.441406 118.542969 159.21875 C 118.757812 159.996094 119.039062 160.746094 119.390625 161.472656 C 119.738281 162.203125 120.148438 162.894531 120.617188 163.546875 L 126.945312 172.417969 L 126.183594 174.257812 L 115.441406 176.058594 C 114.648438 176.1875 113.871094 176.382812 113.109375 176.652344 C 112.347656 176.917969 111.617188 177.25 110.917969 177.644531 C 110.214844 178.042969 109.554688 178.496094 108.933594 179.011719 C 108.3125 179.523438 107.738281 180.089844 107.21875 180.703125 C 106.699219 181.316406 106.234375 181.972656 105.828125 182.671875 C 105.421875 183.367188 105.082031 184.09375 104.804688 184.851562 C 104.53125 185.605469 104.320312 186.382812 104.183594 187.175781 C 104.042969 187.96875 103.976562 188.769531 103.976562 189.574219 L 103.976562 212.9375 C 103.976562 213.742188 104.042969 214.542969 104.183594 215.335938 C 104.320312 216.128906 104.527344 216.902344 104.804688 217.660156 C 105.082031 218.417969 105.421875 219.144531 105.824219 219.839844 C 106.230469 220.535156 106.691406 221.191406 107.210938 221.804688 C 107.734375 222.421875 108.304688 222.984375 108.921875 223.5 C 109.542969 224.011719 110.203125 224.46875 110.90625 224.863281 C 111.605469 225.261719 112.335938 225.59375 113.09375 225.859375 C 113.855469 226.128906 114.632812 226.328125 115.425781 226.457031 L 126.214844 228.257812 L 126.972656 230.078125 L 120.621094 238.972656 C 120.148438 239.625 119.738281 240.316406 119.390625 241.042969 C 119.042969 241.769531 118.761719 242.519531 118.542969 243.296875 C 118.328125 244.074219 118.183594 244.863281 118.109375 245.667969 C 118.03125 246.46875 118.027344 247.269531 118.09375 248.074219 C 118.160156 248.878906 118.296875 249.667969 118.503906 250.449219 C 118.710938 251.226562 118.984375 251.980469 119.324219 252.710938 C 119.664062 253.441406 120.066406 254.136719 120.53125 254.796875 C 120.992188 255.457031 121.511719 256.070312 122.082031 256.636719 L 138.585938 273.144531 C 139.15625 273.714844 139.769531 274.234375 140.429688 274.699219 C 141.089844 275.160156 141.785156 275.5625 142.515625 275.902344 C 143.246094 276.246094 144 276.519531 144.78125 276.726562 C 145.558594 276.933594 146.351562 277.070312 147.15625 277.136719 C 147.960938 277.203125 148.761719 277.199219 149.566406 277.125 C 150.371094 277.050781 151.160156 276.902344 151.9375 276.6875 C 152.714844 276.472656 153.464844 276.191406 154.195312 275.84375 C 154.921875 275.496094 155.613281 275.085938 156.269531 274.617188 L 165.136719 268.289062 L 166.984375 269.054688 L 168.78125 279.792969 C 168.914062 280.589844 169.109375 281.367188 169.378906 282.125 C 169.644531 282.886719 169.976562 283.617188 170.371094 284.320312 C 170.769531 285.019531 171.222656 285.679688 171.734375 286.300781 C 172.25 286.921875 172.8125 287.492188 173.425781 288.015625 C 174.042969 288.535156 174.695312 289 175.394531 289.402344 C 176.089844 289.808594 176.816406 290.148438 177.574219 290.425781 C 178.328125 290.703125 179.105469 290.910156 179.898438 291.050781 C 180.691406 291.191406 181.492188 291.257812 182.296875 291.257812 L 205.660156 291.257812 C 206.464844 291.257812 207.261719 291.191406 208.054688 291.050781 C 208.847656 290.914062 209.625 290.707031 210.378906 290.429688 C 211.136719 290.152344 211.863281 289.8125 212.558594 289.410156 C 213.257812 289.003906 213.910156 288.542969 214.527344 288.023438 C 215.140625 287.5 215.703125 286.929688 216.21875 286.3125 C 216.730469 285.691406 217.1875 285.03125 217.585938 284.328125 C 217.980469 283.628906 218.3125 282.898438 218.582031 282.140625 C 218.847656 281.378906 219.046875 280.601562 219.175781 279.808594 L 220.976562 269.019531 L 222.800781 268.261719 L 231.691406 274.613281 C 232.347656 275.085938 233.035156 275.496094 233.761719 275.84375 C 234.488281 276.195312 235.242188 276.476562 236.019531 276.691406 C 236.792969 276.90625 237.582031 277.054688 238.386719 277.128906 C 239.1875 277.207031 239.992188 277.210938 240.796875 277.144531 C 241.597656 277.078125 242.390625 276.941406 243.167969 276.734375 C 243.949219 276.527344 244.703125 276.253906 245.433594 275.914062 C 246.164062 275.570312 246.859375 275.167969 247.519531 274.707031 C 248.175781 274.242188 248.789062 273.722656 249.359375 273.152344 L 265.863281 256.652344 C 266.4375 256.085938 266.957031 255.46875 267.421875 254.808594 C 267.886719 254.152344 268.289062 253.457031 268.628906 252.722656 C 268.96875 251.992188 269.242188 251.238281 269.449219 250.457031 C 269.65625 249.679688 269.796875 248.886719 269.863281 248.082031 C 269.929688 247.277344 269.925781 246.476562 269.847656 245.671875 C 269.773438 244.867188 269.628906 244.078125 269.414062 243.300781 C 269.199219 242.523438 268.914062 241.769531 268.566406 241.042969 C 268.21875 240.316406 267.808594 239.625 267.339844 238.96875 L 260.988281 230.078125 L 261.746094 228.253906 L 272.515625 226.457031 C 273.3125 226.324219 274.089844 226.128906 274.847656 225.859375 C 275.609375 225.59375 276.339844 225.261719 277.039062 224.867188 C 277.742188 224.46875 278.402344 224.015625 279.023438 223.5 C 279.644531 222.988281 280.214844 222.421875 280.738281 221.808594 C 281.257812 221.195312 281.722656 220.539062 282.125 219.84375 C 282.53125 219.144531 282.871094 218.417969 283.148438 217.664062 C 283.425781 216.90625 283.632812 216.128906 283.773438 215.335938 C 283.910156 214.542969 283.980469 213.742188 283.976562 212.9375 L 283.976562 189.574219 C 283.980469 188.769531 283.910156 187.972656 283.773438 187.179688 C 283.632812 186.386719 283.425781 185.609375 283.148438 184.851562 C 282.875 184.097656 282.535156 183.371094 282.128906 182.675781 C 281.726562 181.976562 281.261719 181.324219 280.742188 180.707031 C 280.222656 180.09375 279.652344 179.53125 279.03125 179.015625 C 278.410156 178.503906 277.75 178.046875 277.050781 177.648438 C 276.347656 177.253906 275.617188 176.921875 274.859375 176.652344 C 274.097656 176.386719 273.324219 176.1875 272.527344 176.058594 Z M 267.613281 210.683594 L 254.566406 212.867188 C 253.882812 212.980469 253.222656 213.179688 252.589844 213.460938 C 251.953125 213.742188 251.367188 214.101562 250.824219 214.53125 C 250.28125 214.964844 249.800781 215.457031 249.382812 216.011719 C 248.964844 216.566406 248.625 217.164062 248.359375 217.804688 L 244.132812 228.011719 C 243.867188 228.652344 243.683594 229.316406 243.585938 230.003906 C 243.492188 230.691406 243.480469 231.382812 243.558594 232.070312 C 243.640625 232.761719 243.804688 233.429688 244.050781 234.078125 C 244.300781 234.726562 244.628906 235.332031 245.03125 235.898438 L 252.710938 246.652344 L 239.367188 259.996094 L 228.613281 252.3125 C 228.046875 251.910156 227.441406 251.585938 226.792969 251.335938 C 226.144531 251.089844 225.476562 250.925781 224.785156 250.847656 C 224.097656 250.769531 223.410156 250.777344 222.722656 250.871094 C 222.035156 250.96875 221.371094 251.148438 220.726562 251.410156 L 210.523438 255.636719 C 209.882812 255.902344 209.285156 256.246094 208.730469 256.664062 C 208.179688 257.082031 207.683594 257.5625 207.253906 258.105469 C 206.820312 258.648438 206.464844 259.234375 206.179688 259.871094 C 205.898438 260.503906 205.699219 261.164062 205.585938 261.847656 L 203.40625 274.894531 L 184.550781 274.894531 L 182.375 261.878906 C 182.261719 261.191406 182.0625 260.535156 181.78125 259.898438 C 181.496094 259.265625 181.140625 258.675781 180.707031 258.132812 C 180.273438 257.589844 179.78125 257.109375 179.226562 256.691406 C 178.671875 256.273438 178.070312 255.933594 177.429688 255.667969 L 167.210938 251.425781 C 166.566406 251.160156 165.902344 250.980469 165.214844 250.882812 C 164.527344 250.789062 163.835938 250.78125 163.148438 250.859375 C 162.457031 250.9375 161.789062 251.101562 161.140625 251.347656 C 160.488281 251.597656 159.882812 251.921875 159.316406 252.328125 L 148.585938 259.988281 L 135.242188 246.648438 L 142.921875 235.894531 C 143.328125 235.328125 143.652344 234.722656 143.902344 234.074219 C 144.152344 233.425781 144.316406 232.757812 144.394531 232.066406 C 144.472656 231.378906 144.464844 230.6875 144.367188 230 C 144.269531 229.3125 144.089844 228.648438 143.824219 228.007812 L 139.597656 217.804688 C 139.332031 217.164062 138.988281 216.566406 138.570312 216.011719 C 138.152344 215.457031 137.671875 214.964844 137.128906 214.53125 C 136.585938 214.101562 136 213.742188 135.363281 213.460938 C 134.730469 213.179688 134.070312 212.980469 133.386719 212.867188 L 120.339844 210.683594 L 120.339844 191.828125 L 133.355469 189.65625 C 134.042969 189.542969 134.703125 189.34375 135.335938 189.058594 C 135.972656 188.777344 136.558594 188.421875 137.101562 187.988281 C 137.648438 187.554688 138.128906 187.0625 138.542969 186.503906 C 138.960938 185.949219 139.304688 185.351562 139.566406 184.710938 L 143.8125 174.492188 C 144.078125 173.847656 144.257812 173.183594 144.355469 172.496094 C 144.453125 171.808594 144.460938 171.117188 144.382812 170.425781 C 144.304688 169.738281 144.140625 169.066406 143.890625 168.417969 C 143.640625 167.769531 143.316406 167.160156 142.910156 166.597656 L 135.242188 155.863281 L 148.585938 142.523438 L 159.316406 150.183594 C 159.882812 150.589844 160.488281 150.914062 161.136719 151.164062 C 161.785156 151.414062 162.457031 151.578125 163.148438 151.65625 C 163.835938 151.734375 164.527344 151.726562 165.214844 151.628906 C 165.902344 151.53125 166.570312 151.351562 167.210938 151.085938 L 177.429688 146.847656 C 178.070312 146.582031 178.671875 146.242188 179.226562 145.824219 C 179.78125 145.40625 180.273438 144.929688 180.707031 144.382812 C 181.140625 143.839844 181.496094 143.253906 181.78125 142.617188 C 182.0625 141.984375 182.261719 141.324219 182.375 140.640625 L 184.550781 127.621094 L 203.40625 127.621094 L 205.578125 140.636719 C 205.695312 141.320312 205.890625 141.980469 206.175781 142.613281 C 206.457031 143.25 206.816406 143.839844 207.246094 144.382812 C 207.679688 144.925781 208.175781 145.40625 208.730469 145.820312 C 209.285156 146.238281 209.882812 146.578125 210.523438 146.84375 L 220.742188 151.085938 C 221.386719 151.355469 222.050781 151.535156 222.738281 151.632812 C 223.425781 151.726562 224.117188 151.738281 224.808594 151.660156 C 225.496094 151.578125 226.167969 151.417969 226.816406 151.167969 C 227.464844 150.917969 228.070312 150.589844 228.636719 150.1875 L 239.371094 142.527344 L 252.710938 155.867188 L 245.050781 166.601562 C 244.644531 167.164062 244.320312 167.773438 244.070312 168.421875 C 243.820312 169.070312 243.65625 169.738281 243.578125 170.429688 C 243.5 171.121094 243.507812 171.808594 243.605469 172.5 C 243.703125 173.1875 243.882812 173.851562 244.148438 174.492188 L 248.394531 184.710938 C 248.65625 185.355469 249 185.953125 249.414062 186.507812 C 249.832031 187.0625 250.3125 187.558594 250.855469 187.988281 C 251.398438 188.421875 251.988281 188.78125 252.621094 189.0625 C 253.257812 189.34375 253.917969 189.542969 254.601562 189.660156 L 267.613281 191.828125 Z M 267.613281 210.683594 " fill-opacity="1" fill-rule="nonzero"/></g><g clip-path="url(#ab400b66b3)"><path fill="#000000" d="M 351.960938 99.757812 C 351.1875 97.410156 349.160156 95.773438 346.542969 95.382812 C 345.308594 95.199219 343.890625 95.273438 342.21875 95.625 C 339.300781 96.222656 337.136719 96.457031 335.554688 96.503906 C 341.519531 86.410156 346.371094 74.90625 349.160156 64.074219 C 353.675781 46.5625 351.261719 38.585938 348.441406 34.976562 C 340.984375 25.425781 330.097656 20.292969 316.964844 20.136719 C 309.964844 20.050781 303.8125 21.4375 300.605469 22.433594 C 297.617188 21.90625 294.40625 21.609375 291.039062 21.554688 C 284.71875 21.457031 279.136719 22.835938 274.371094 25.671875 C 271.730469 24.777344 267.492188 23.515625 262.601562 22.710938 C 251.089844 20.816406 241.816406 22.292969 235.03125 27.09375 C 226.816406 32.910156 223.007812 43.011719 223.710938 57.121094 C 223.933594 61.601562 226.4375 75.234375 230.375 88.15625 C 232.636719 95.589844 235.050781 101.757812 237.546875 106.496094 C 241.085938 113.222656 244.875 117.179688 249.128906 118.605469 C 251.511719 119.394531 255.84375 119.957031 260.398438 116.15625 C 260.976562 116.851562 261.746094 117.546875 262.769531 118.195312 C 264.066406 119.019531 265.65625 119.6875 267.242188 120.082031 C 272.953125 121.515625 278.308594 121.15625 282.871094 119.152344 C 282.902344 119.964844 282.921875 120.746094 282.941406 121.414062 C 282.972656 122.507812 283.003906 123.570312 283.042969 124.570312 C 283.308594 131.320312 283.769531 136.570312 285.128906 140.246094 C 285.203125 140.449219 285.304688 140.753906 285.410156 141.078125 C 286.085938 143.160156 287.21875 146.640625 290.101562 149.367188 C 293.089844 152.191406 296.703125 153.054688 300.007812 153.054688 C 301.664062 153.054688 303.246094 152.835938 304.636719 152.539062 C 309.585938 151.476562 315.203125 149.859375 319.269531 144.058594 C 323.113281 138.574219 324.976562 130.320312 325.316406 117.304688 C 325.359375 116.9375 325.402344 116.589844 325.441406 116.25 C 325.464844 116.027344 325.492188 115.796875 325.519531 115.566406 L 326.429688 115.644531 L 326.660156 115.660156 C 331.699219 115.894531 337.859375 114.824219 341.644531 113.0625 C 344.636719 111.667969 354.21875 106.597656 351.960938 99.757812 " fill-opacity="1" fill-rule="nonzero"/></g><path fill="#336791" d="M 343.347656 101.085938 C 328.363281 104.1875 327.332031 99.101562 327.332031 99.101562 C 343.152344 75.578125 349.765625 45.722656 344.058594 38.414062 C 328.488281 18.480469 301.535156 27.910156 301.085938 28.152344 L 300.9375 28.179688 C 297.980469 27.5625 294.667969 27.195312 290.941406 27.136719 C 284.160156 27.023438 279.023438 28.917969 275.117188 31.882812 C 275.117188 31.882812 227.035156 12.035156 229.273438 56.84375 C 229.75 66.375 242.910156 128.96875 258.605469 110.0625 C 264.34375 103.152344 269.886719 97.304688 269.886719 97.304688 C 272.640625 99.136719 275.933594 100.070312 279.390625 99.738281 L 279.65625 99.507812 C 279.578125 100.363281 279.613281 101.207031 279.769531 102.203125 C 275.722656 106.726562 276.910156 107.523438 268.828125 109.1875 C 260.648438 110.878906 265.453125 113.882812 268.589844 114.671875 C 272.394531 115.625 281.195312 116.972656 287.140625 108.632812 L 286.902344 109.585938 C 288.484375 110.859375 289.597656 117.855469 289.410156 124.203125 C 289.226562 130.546875 289.097656 134.90625 290.347656 138.308594 C 291.597656 141.710938 292.84375 149.363281 303.46875 147.082031 C 312.347656 145.179688 316.949219 140.234375 317.589844 131.992188 C 318.042969 126.136719 319.074219 127 319.136719 121.765625 L 319.960938 119.28125 C 320.910156 111.339844 320.109375 108.773438 325.582031 109.964844 L 326.910156 110.085938 C 330.9375 110.269531 336.207031 109.4375 339.300781 107.996094 C 345.960938 104.898438 349.914062 99.726562 343.34375 101.085938 L 343.347656 101.085938 " fill-opacity="1" fill-rule="nonzero"/><path fill="#ffffff" d="M 277.933594 61.105469 C 276.582031 60.917969 275.359375 61.089844 274.738281 61.5625 C 274.390625 61.824219 274.285156 62.132812 274.257812 62.339844 C 274.179688 62.898438 274.566406 63.515625 274.804688 63.835938 C 275.484375 64.734375 276.476562 65.355469 277.457031 65.488281 C 277.601562 65.511719 277.742188 65.519531 277.878906 65.519531 C 279.515625 65.519531 281.003906 64.242188 281.132812 63.300781 C 281.300781 62.121094 279.585938 61.335938 277.933594 61.105469 " fill-opacity="1" fill-rule="nonzero"/><path fill="#ffffff" d="M 322.664062 61.144531 C 322.535156 60.21875 320.894531 59.957031 319.335938 60.171875 C 317.78125 60.390625 316.269531 61.09375 316.398438 62.019531 C 316.496094 62.738281 317.796875 63.96875 319.335938 63.96875 C 319.464844 63.96875 319.597656 63.960938 319.726562 63.941406 C 320.75 63.800781 321.503906 63.148438 321.863281 62.769531 C 322.40625 62.199219 322.71875 61.558594 322.664062 61.144531 " fill-opacity="1" fill-rule="nonzero"/><path fill="#ffffff" d="M 348.332031 100.738281 C 347.761719 99.007812 345.921875 98.445312 342.863281 99.082031 C 333.792969 100.953125 330.542969 99.65625 329.476562 98.871094 C 336.53125 88.105469 342.328125 75.097656 345.457031 62.957031 C 346.945312 57.207031 347.761719 51.867188 347.828125 47.515625 C 347.902344 42.734375 347.089844 39.226562 345.414062 37.082031 C 338.660156 28.4375 328.75 23.796875 316.753906 23.671875 C 308.507812 23.578125 301.539062 25.691406 300.1875 26.289062 C 297.347656 25.578125 294.242188 25.144531 290.867188 25.089844 C 284.675781 24.988281 279.324219 26.472656 274.894531 29.5 C 272.96875 28.78125 267.996094 27.070312 261.914062 26.089844 C 251.394531 24.394531 243.039062 25.679688 237.074219 29.910156 C 229.960938 34.964844 226.675781 43.992188 227.3125 56.75 C 227.527344 61.039062 229.964844 74.242188 233.816406 86.886719 C 238.886719 103.53125 244.398438 112.949219 250.195312 114.886719 C 250.875 115.117188 251.660156 115.273438 252.519531 115.273438 C 254.636719 115.273438 257.230469 114.316406 259.925781 111.066406 C 264.410156 105.664062 268.59375 101.136719 270.136719 99.492188 C 272.414062 100.71875 274.921875 101.402344 277.480469 101.46875 C 277.484375 101.539062 277.492188 101.605469 277.496094 101.671875 C 276.980469 102.28125 276.5625 102.816406 276.199219 103.277344 C 274.425781 105.535156 274.058594 106.003906 268.347656 107.179688 C 266.722656 107.515625 262.40625 108.40625 262.34375 111.441406 C 262.273438 114.75 267.445312 116.140625 268.035156 116.285156 C 270.085938 116.800781 272.0625 117.058594 273.949219 117.058594 C 278.539062 117.058594 282.574219 115.550781 285.800781 112.625 C 285.699219 124.429688 286.191406 136.066406 287.601562 139.609375 C 288.761719 142.511719 291.59375 149.601562 300.535156 149.601562 C 301.847656 149.601562 303.292969 149.449219 304.878906 149.105469 C 314.210938 147.101562 318.261719 142.972656 319.832031 133.859375 C 320.667969 128.992188 322.109375 117.363281 322.785156 111.128906 C 324.214844 111.570312 326.054688 111.777344 328.046875 111.777344 C 332.191406 111.777344 336.980469 110.894531 339.976562 109.496094 C 343.351562 107.929688 349.433594 104.078125 348.332031 100.738281 Z M 326.109375 58.589844 C 326.074219 60.433594 325.824219 62.105469 325.558594 63.847656 C 325.269531 65.726562 324.972656 67.664062 324.898438 70.019531 C 324.820312 72.308594 325.109375 74.691406 325.386719 77 C 325.941406 81.65625 326.515625 86.445312 324.296875 91.175781 C 323.949219 90.558594 323.617188 89.894531 323.316406 89.152344 C 323.039062 88.480469 322.4375 87.40625 321.613281 85.914062 C 318.386719 80.125 310.839844 66.558594 314.703125 61.019531 C 315.851562 59.375 318.773438 57.679688 326.109375 58.589844 Z M 317.21875 27.398438 C 327.96875 27.636719 336.46875 31.667969 342.492188 39.375 C 347.105469 45.285156 342.023438 72.1875 327.304688 95.394531 C 327.160156 95.207031 327.011719 95.023438 326.855469 94.828125 C 326.796875 94.753906 326.734375 94.671875 326.671875 94.597656 C 330.472656 88.300781 329.734375 82.078125 329.070312 76.554688 C 328.796875 74.289062 328.539062 72.148438 328.605469 70.140625 C 328.675781 68.007812 328.957031 66.179688 329.226562 64.414062 C 329.5625 62.238281 329.898438 59.984375 329.808594 57.328125 C 329.878906 57.050781 329.90625 56.71875 329.871094 56.328125 C 329.628906 53.78125 326.726562 46.160156 320.8125 39.261719 C 317.574219 35.488281 312.859375 31.265625 306.414062 28.417969 C 309.1875 27.839844 312.976562 27.304688 317.21875 27.398438 Z M 257.070312 108.6875 C 254.097656 112.265625 252.042969 111.582031 251.371094 111.359375 C 246.96875 109.882812 241.867188 100.570312 237.367188 85.796875 C 233.472656 73.015625 231.199219 60.164062 231.019531 56.5625 C 230.449219 45.164062 233.207031 37.21875 239.214844 32.949219 C 248.992188 26.003906 265.0625 30.164062 271.523438 32.269531 C 271.429688 32.363281 271.332031 32.449219 271.242188 32.542969 C 260.644531 43.265625 260.894531 61.589844 260.921875 62.710938 C 260.917969 63.144531 260.957031 63.753906 261.003906 64.597656 C 261.1875 67.679688 261.527344 73.414062 260.621094 79.914062 C 259.777344 85.945312 261.636719 91.855469 265.714844 96.117188 C 266.136719 96.5625 266.578125 96.976562 267.035156 97.363281 C 265.21875 99.3125 261.269531 103.625 257.070312 108.6875 Z M 268.394531 93.542969 C 265.109375 90.109375 263.613281 85.324219 264.296875 80.425781 C 265.253906 73.5625 264.902344 67.585938 264.710938 64.375 C 264.683594 63.925781 264.664062 63.53125 264.648438 63.222656 C 266.195312 61.847656 273.371094 57.996094 278.484375 59.167969 C 280.824219 59.707031 282.246094 61.296875 282.839844 64.039062 C 285.898438 78.226562 283.242188 84.136719 281.109375 88.894531 C 280.667969 89.867188 280.253906 90.796875 279.898438 91.75 L 279.625 92.492188 C 278.925781 94.367188 278.28125 96.101562 277.875 97.753906 C 274.378906 97.742188 270.980469 96.25 268.394531 93.542969 Z M 268.933594 112.679688 C 267.910156 112.421875 266.992188 111.980469 266.453125 111.609375 C 266.90625 111.398438 267.707031 111.109375 269.09375 110.824219 C 275.816406 109.441406 276.855469 108.460938 279.117188 105.578125 C 279.640625 104.917969 280.222656 104.164062 281.039062 103.253906 L 281.039062 103.25 C 282.261719 101.886719 282.8125 102.121094 283.820312 102.539062 C 284.636719 102.878906 285.433594 103.902344 285.757812 105.03125 C 285.90625 105.5625 286.078125 106.578125 285.519531 107.363281 C 280.785156 114.003906 273.886719 113.921875 268.933594 112.679688 Z M 304.101562 145.46875 C 295.878906 147.230469 292.964844 143.03125 291.050781 138.226562 C 289.8125 135.125 289.203125 121.136719 289.636719 105.6875 C 289.640625 105.488281 289.609375 105.285156 289.554688 105.097656 C 289.503906 104.738281 289.429688 104.375 289.324219 104.007812 C 288.683594 101.761719 287.121094 99.882812 285.242188 99.101562 C 284.496094 98.792969 283.125 98.222656 281.484375 98.648438 C 281.835938 97.199219 282.441406 95.5625 283.101562 93.796875 L 283.378906 93.046875 C 283.691406 92.210938 284.078125 91.335938 284.496094 90.417969 C 286.730469 85.445312 289.789062 78.636719 286.46875 63.253906 C 285.222656 57.492188 281.070312 54.675781 274.777344 55.332031 C 271 55.722656 267.550781 57.246094 265.828125 58.121094 C 265.457031 58.308594 265.117188 58.492188 264.800781 58.667969 C 265.28125 52.863281 267.097656 42.011719 273.890625 35.148438 C 278.167969 30.828125 283.863281 28.691406 290.804688 28.808594 C 304.480469 29.03125 313.246094 36.0625 318.195312 41.921875 C 322.460938 46.972656 324.769531 52.058594 325.691406 54.800781 C 318.761719 54.09375 314.046875 55.464844 311.660156 58.886719 C 306.460938 66.332031 314.5 80.785156 318.363281 87.726562 C 319.074219 89 319.683594 90.101562 319.882812 90.570312 C 321.136719 93.625 322.769531 95.664062 323.957031 97.15625 C 324.320312 97.613281 324.679688 98.054688 324.945312 98.441406 C 322.84375 99.046875 319.074219 100.449219 319.417969 107.449219 C 319.140625 110.964844 317.171875 127.410156 316.167969 133.226562 C 314.847656 140.90625 312.027344 143.761719 304.101562 145.46875 Z M 338.414062 106.125 C 336.265625 107.121094 332.675781 107.871094 329.261719 108.03125 C 325.496094 108.207031 323.574219 107.605469 323.125 107.238281 C 322.914062 102.878906 324.53125 102.417969 326.25 101.9375 C 326.515625 101.863281 326.785156 101.785156 327.035156 101.699219 C 327.191406 101.828125 327.367188 101.953125 327.554688 102.078125 C 330.582031 104.082031 335.988281 104.300781 343.613281 102.71875 C 343.640625 102.714844 343.671875 102.710938 343.699219 102.707031 C 342.671875 103.667969 340.910156 104.960938 338.414062 106.125 Z M 338.414062 106.125 " fill-opacity="1" fill-rule="nonzero"/><g clip-path="url(#849cde6e6f)"><path fill="#83cd29" d="M 293.234375 320.457031 C 292.617188 320.457031 292.023438 320.585938 291.496094 320.886719 L 274.785156 330.582031 C 273.707031 331.207031 273.046875 332.390625 273.046875 333.648438 L 273.046875 353.007812 C 273.046875 354.265625 273.707031 355.445312 274.785156 356.074219 L 279.148438 358.601562 C 281.269531 359.652344 282.050781 359.632812 283.015625 359.632812 C 286.15625 359.632812 287.945312 357.71875 287.945312 354.394531 L 287.945312 335.292969 C 287.945312 335.023438 287.714844 334.828125 287.449219 334.828125 L 285.359375 334.828125 C 285.089844 334.828125 284.859375 335.027344 284.859375 335.292969 L 284.859375 354.402344 C 284.859375 355.875 283.332031 357.359375 280.851562 356.113281 L 276.316406 353.4375 C 276.15625 353.351562 276.03125 353.191406 276.03125 353.011719 L 276.03125 333.652344 C 276.03125 333.46875 276.15625 333.28125 276.316406 333.1875 L 292.988281 323.527344 C 293.144531 323.4375 293.332031 323.4375 293.484375 323.527344 L 310.160156 333.1875 C 310.316406 333.285156 310.441406 333.464844 310.441406 333.652344 L 310.441406 353.011719 C 310.441406 353.195312 310.351562 353.386719 310.195312 353.476562 L 293.488281 363.136719 C 293.339844 363.222656 293.140625 363.222656 292.988281 363.136719 L 288.699219 360.570312 C 288.570312 360.496094 288.394531 360.5 288.273438 360.570312 C 287.085938 361.246094 286.863281 361.324219 285.753906 361.710938 C 285.480469 361.808594 285.0625 361.957031 285.894531 362.425781 L 291.5 365.746094 C 292.035156 366.054688 292.628906 366.207031 293.238281 366.207031 C 293.859375 366.207031 294.445312 366.058594 294.976562 365.746094 L 311.683594 356.082031 C 312.765625 355.449219 313.421875 354.273438 313.421875 353.015625 L 313.421875 333.65625 C 313.421875 332.398438 312.765625 331.21875 311.683594 330.589844 L 294.976562 320.894531 C 294.453125 320.59375 293.851562 320.46875 293.238281 320.46875 Z M 297.703125 334.292969 C 292.945312 334.292969 290.109375 336.328125 290.109375 339.710938 C 290.109375 343.375 292.921875 344.390625 297.488281 344.84375 C 302.953125 345.382812 303.378906 346.1875 303.378906 347.269531 C 303.378906 349.140625 301.890625 349.941406 298.375 349.941406 C 293.960938 349.941406 292.992188 348.832031 292.664062 346.621094 C 292.628906 346.386719 292.445312 346.195312 292.203125 346.195312 L 290.035156 346.195312 C 289.898438 346.195312 289.785156 346.246094 289.6875 346.34375 C 289.589844 346.441406 289.542969 346.554688 289.539062 346.691406 C 289.539062 349.519531 291.066406 352.859375 298.371094 352.859375 C 303.660156 352.859375 306.707031 350.78125 306.707031 347.121094 C 306.707031 343.503906 304.246094 342.527344 299.117188 341.84375 C 293.941406 341.148438 293.441406 340.816406 293.441406 339.597656 C 293.441406 338.589844 293.859375 337.242188 297.699219 337.242188 C 301.125 337.242188 302.394531 337.988281 302.914062 340.308594 C 302.957031 340.527344 303.148438 340.707031 303.375 340.707031 L 305.542969 340.707031 C 305.675781 340.707031 305.804688 340.625 305.898438 340.527344 C 305.988281 340.425781 306.054688 340.308594 306.039062 340.171875 C 305.703125 336.171875 303.050781 334.289062 297.703125 334.289062 Z M 297.703125 334.292969 " fill-opacity="1" fill-rule="nonzero"/></g><g clip-path="url(#f10100e810)"><path fill="#404137" d="M 195.007812 295.082031 C 194.816406 295.082031 194.640625 295.128906 194.472656 295.222656 C 194.121094 295.429688 193.945312 295.738281 193.941406 296.148438 L 193.941406 323.421875 C 193.941406 323.691406 193.816406 323.929688 193.585938 324.066406 C 193.339844 324.210938 193.089844 324.210938 192.84375 324.066406 L 188.410156 321.5 C 188.078125 321.308594 187.722656 321.210938 187.34375 321.210938 C 186.964844 321.210938 186.609375 321.308594 186.28125 321.5 L 168.582031 331.765625 C 167.917969 332.148438 167.515625 332.886719 167.515625 333.65625 L 167.515625 354.191406 C 167.515625 354.570312 167.609375 354.929688 167.800781 355.261719 C 167.988281 355.589844 168.25 355.851562 168.578125 356.042969 L 186.28125 366.3125 C 186.609375 366.503906 186.964844 366.597656 187.34375 366.597656 C 187.726562 366.597656 188.082031 366.503906 188.410156 366.3125 L 206.109375 356.042969 C 206.441406 355.851562 206.699219 355.589844 206.890625 355.261719 C 207.082031 354.929688 207.175781 354.570312 207.175781 354.191406 L 207.175781 302.996094 C 207.175781 302.214844 206.75 301.484375 206.074219 301.105469 L 195.539062 295.183594 C 195.375 295.09375 195.191406 295.074219 195.007812 295.078125 Z M 81.136719 320.714844 C 80.800781 320.726562 80.480469 320.785156 80.179688 320.964844 L 62.476562 331.230469 C 62.148438 331.421875 61.886719 331.683594 61.699219 332.011719 C 61.507812 332.34375 61.414062 332.703125 61.414062 333.082031 L 61.449219 360.644531 C 61.449219 361.027344 61.648438 361.382812 61.984375 361.570312 C 62.3125 361.765625 62.71875 361.765625 63.046875 361.570312 L 73.546875 355.507812 C 74.210938 355.113281 74.644531 354.421875 74.644531 353.65625 L 74.644531 340.785156 C 74.644531 340.015625 75.046875 339.3125 75.710938 338.929688 L 80.179688 336.328125 C 80.507812 336.136719 80.863281 336.042969 81.246094 336.042969 C 81.625 336.039062 81.980469 336.136719 82.308594 336.328125 L 86.777344 338.929688 C 87.4375 339.3125 87.839844 340.015625 87.839844 340.78125 L 87.839844 353.652344 C 87.839844 354.417969 88.285156 355.113281 88.941406 355.503906 L 99.441406 361.566406 C 99.769531 361.765625 100.175781 361.765625 100.503906 361.566406 C 100.828125 361.378906 101.035156 361.023438 101.035156 360.640625 L 101.070312 333.082031 C 101.074219 332.699219 100.980469 332.34375 100.789062 332.011719 C 100.601562 331.679688 100.339844 331.417969 100.007812 331.226562 L 82.308594 320.964844 C 82.007812 320.789062 81.691406 320.730469 81.351562 320.714844 Z M 240.199219 320.964844 C 239.816406 320.960938 239.460938 321.058594 239.132812 321.25 L 221.433594 331.515625 C 220.769531 331.898438 220.367188 332.601562 220.367188 333.371094 L 220.367188 353.902344 C 220.367188 354.675781 220.800781 355.375 221.464844 355.757812 L 239.027344 365.816406 C 239.675781 366.1875 240.464844 366.214844 241.117188 365.851562 L 251.761719 359.898438 C 252.097656 359.707031 252.328125 359.355469 252.328125 358.96875 C 252.328125 358.582031 252.128906 358.234375 251.796875 358.042969 L 233.988281 347.777344 C 233.652344 347.585938 233.417969 347.199219 233.417969 346.8125 L 233.417969 340.390625 C 233.417969 340.007812 233.65625 339.65625 233.988281 339.464844 L 239.519531 336.257812 C 239.851562 336.066406 240.253906 336.066406 240.585938 336.257812 L 246.132812 339.464844 C 246.488281 339.671875 246.664062 339.980469 246.664062 340.390625 L 246.664062 345.453125 C 246.664062 345.867188 246.839844 346.175781 247.195312 346.378906 C 247.527344 346.574219 247.929688 346.574219 248.261719 346.378906 L 258.867188 340.175781 C 259.523438 339.792969 259.929688 339.089844 259.929688 338.324219 L 259.929688 333.367188 C 259.929688 332.988281 259.835938 332.628906 259.644531 332.296875 C 259.457031 331.96875 259.195312 331.707031 258.867188 331.515625 L 241.273438 321.246094 C 240.941406 321.054688 240.585938 320.960938 240.207031 320.960938 Z M 187.269531 336.292969 C 187.371094 336.292969 187.464844 336.316406 187.554688 336.363281 L 193.621094 339.894531 C 193.785156 339.988281 193.90625 340.167969 193.90625 340.355469 L 193.90625 347.417969 C 193.90625 347.609375 193.785156 347.785156 193.621094 347.878906 L 187.554688 351.410156 C 187.390625 351.503906 187.1875 351.503906 187.023438 351.410156 L 180.957031 347.878906 C 180.792969 347.785156 180.671875 347.605469 180.671875 347.417969 L 180.671875 340.359375 C 180.671875 340.167969 180.792969 339.992188 180.957031 339.894531 L 187.023438 336.367188 C 187.105469 336.320312 187.179688 336.296875 187.269531 336.296875 Z M 187.269531 336.292969 " fill-opacity="1" fill-rule="nonzero"/></g><path fill="#83cd29" d="M 134.308594 320.855469 C 133.929688 320.855469 133.574219 320.949219 133.246094 321.140625 L 115.542969 331.371094 C 114.882812 331.757812 114.480469 332.496094 114.480469 333.261719 L 114.480469 353.796875 C 114.480469 354.179688 114.574219 354.535156 114.761719 354.867188 C 114.953125 355.199219 115.214844 355.460938 115.542969 355.648438 L 133.246094 365.917969 C 133.574219 366.109375 133.929688 366.207031 134.308594 366.207031 C 134.691406 366.207031 135.042969 366.109375 135.375 365.917969 L 153.074219 355.648438 C 153.402344 355.460938 153.664062 355.199219 153.855469 354.867188 C 154.042969 354.535156 154.140625 354.179688 154.140625 353.796875 L 154.140625 333.261719 C 154.140625 332.496094 153.738281 331.757812 153.074219 331.375 L 135.371094 321.140625 C 135.042969 320.949219 134.6875 320.855469 134.308594 320.855469 Z M 240.164062 339.179688 C 240.09375 339.179688 240.015625 339.179688 239.949219 339.214844 L 236.542969 341.210938 C 236.40625 341.289062 236.335938 341.410156 236.332031 341.566406 L 236.332031 345.488281 C 236.332031 345.636719 236.417969 345.773438 236.542969 345.847656 L 239.949219 347.808594 C 240.078125 347.886719 240.210938 347.886719 240.339844 347.808594 L 243.746094 345.847656 C 243.871094 345.773438 243.957031 345.636719 243.957031 345.488281 L 243.957031 341.566406 C 243.957031 341.421875 243.871094 341.285156 243.746094 341.210938 L 240.339844 339.214844 C 240.277344 339.175781 240.234375 339.179688 240.160156 339.179688 Z M 240.164062 339.179688 " fill-opacity="1" fill-rule="nonzero"/><g clip-path="url(#6f1bebde40)"><path fill="#00d8ff" d="M 129.617188 52.375 C 128.148438 51.867188 126.621094 51.386719 125.042969 50.933594 C 125.300781 49.875 125.542969 48.832031 125.753906 47.804688 C 129.214844 30.96875 126.953125 17.40625 119.214844 12.941406 C 111.792969 8.65625 99.660156 13.121094 87.40625 23.796875 C 86.230469 24.824219 85.046875 25.910156 83.867188 27.046875 C 83.078125 26.292969 82.296875 25.566406 81.511719 24.871094 C 68.667969 13.457031 55.796875 8.648438 48.066406 13.125 C 40.65625 17.421875 38.460938 30.171875 41.582031 46.128906 C 41.882812 47.667969 42.234375 49.242188 42.632812 50.84375 C 40.808594 51.363281 39.050781 51.914062 37.367188 52.5 C 22.3125 57.753906 12.699219 65.988281 12.699219 74.53125 C 12.699219 83.351562 23.019531 92.203125 38.703125 97.566406 C 39.9375 97.988281 41.222656 98.390625 42.546875 98.769531 C 42.117188 100.496094 41.742188 102.195312 41.429688 103.851562 C 38.457031 119.53125 40.777344 131.980469 48.171875 136.246094 C 55.804688 140.652344 68.621094 136.121094 81.097656 125.207031 C 82.085938 124.34375 83.074219 123.429688 84.0625 122.472656 C 85.351562 123.707031 86.632812 124.878906 87.90625 125.980469 C 99.996094 136.390625 111.933594 140.59375 119.3125 136.316406 C 126.941406 131.894531 129.425781 118.519531 126.203125 102.25 C 125.957031 101.003906 125.667969 99.734375 125.351562 98.445312 C 126.253906 98.179688 127.136719 97.902344 127.996094 97.617188 C 144.300781 92.207031 154.90625 83.472656 154.90625 74.53125 C 154.90625 65.957031 144.976562 57.667969 129.617188 52.375 Z M 126.085938 91.847656 C 125.308594 92.101562 124.507812 92.351562 123.699219 92.589844 C 121.898438 86.890625 119.46875 80.824219 116.492188 74.558594 C 119.332031 68.441406 121.664062 62.457031 123.414062 56.789062 C 124.871094 57.210938 126.28125 57.65625 127.640625 58.125 C 140.800781 62.660156 148.828125 69.367188 148.828125 74.53125 C 148.828125 80.03125 140.164062 87.175781 126.085938 91.847656 Z M 120.242188 103.429688 C 121.667969 110.621094 121.871094 117.128906 120.925781 122.214844 C 120.082031 126.785156 118.375 129.832031 116.269531 131.050781 C 111.789062 133.648438 102.207031 130.273438 91.871094 121.371094 C 90.683594 120.347656 89.488281 119.257812 88.296875 118.105469 C 92.300781 113.71875 96.304688 108.621094 100.214844 102.957031 C 107.089844 102.347656 113.582031 101.347656 119.476562 99.984375 C 119.765625 101.160156 120.019531 102.304688 120.242188 103.429688 Z M 61.179688 130.601562 C 56.804688 132.152344 53.316406 132.195312 51.207031 130.980469 C 46.722656 128.386719 44.855469 118.390625 47.402344 104.984375 C 47.691406 103.449219 48.039062 101.871094 48.4375 100.257812 C 54.265625 101.546875 60.710938 102.476562 67.601562 103.03125 C 71.539062 108.578125 75.660156 113.667969 79.808594 118.128906 C 78.902344 119.007812 78 119.839844 77.097656 120.625 C 71.582031 125.457031 66.054688 128.882812 61.179688 130.601562 Z M 40.667969 91.8125 C 33.734375 89.4375 28.007812 86.359375 24.082031 82.988281 C 20.554688 79.96875 18.773438 76.964844 18.773438 74.53125 C 18.773438 69.347656 26.496094 62.734375 39.371094 58.242188 C 40.933594 57.695312 42.570312 57.183594 44.265625 56.699219 C 46.046875 62.496094 48.378906 68.554688 51.195312 74.675781 C 48.34375 80.890625 45.976562 87.046875 44.179688 92.914062 C 42.96875 92.5625 41.796875 92.195312 40.667969 91.8125 Z M 47.542969 44.960938 C 44.871094 31.289062 46.648438 20.976562 51.113281 18.386719 C 55.871094 15.632812 66.390625 19.5625 77.476562 29.417969 C 78.1875 30.046875 78.898438 30.707031 79.617188 31.386719 C 75.480469 35.828125 71.398438 40.882812 67.5 46.394531 C 60.808594 47.015625 54.410156 48.011719 48.523438 49.347656 C 48.152344 47.855469 47.824219 46.390625 47.542969 44.960938 Z M 108.882812 60.121094 C 107.476562 57.6875 106.03125 55.3125 104.5625 53.003906 C 109.097656 53.578125 113.445312 54.339844 117.527344 55.273438 C 116.304688 59.203125 114.777344 63.316406 112.976562 67.53125 C 111.6875 65.078125 110.320312 62.605469 108.882812 60.121094 Z M 83.867188 35.734375 C 86.675781 38.773438 89.480469 42.164062 92.238281 45.847656 C 89.457031 45.714844 86.640625 45.644531 83.800781 45.644531 C 80.992188 45.644531 78.195312 45.714844 75.429688 45.84375 C 78.191406 42.195312 81.023438 38.808594 83.867188 35.734375 Z M 58.695312 60.164062 C 57.289062 62.601562 55.949219 65.0625 54.679688 67.527344 C 52.910156 63.324219 51.398438 59.195312 50.160156 55.207031 C 54.21875 54.300781 58.546875 53.554688 63.054688 52.992188 C 61.558594 55.324219 60.105469 57.71875 58.695312 60.164062 Z M 63.183594 96.5 C 58.527344 95.984375 54.132812 95.277344 50.078125 94.390625 C 51.332031 90.332031 52.878906 86.117188 54.6875 81.828125 C 55.960938 84.289062 57.304688 86.746094 58.71875 89.195312 C 60.160156 91.683594 61.652344 94.121094 63.183594 96.5 Z M 84.035156 113.753906 C 81.15625 110.644531 78.285156 107.203125 75.480469 103.503906 C 78.203125 103.613281 80.980469 103.667969 83.800781 103.667969 C 86.703125 103.667969 89.566406 103.601562 92.382812 103.476562 C 89.617188 107.242188 86.820312 110.691406 84.035156 113.753906 Z M 113.03125 81.609375 C 114.933594 85.945312 116.539062 90.140625 117.808594 94.132812 C 113.6875 95.070312 109.234375 95.828125 104.542969 96.394531 C 106.023438 94.054688 107.476562 91.632812 108.910156 89.148438 C 110.359375 86.636719 111.734375 84.117188 113.03125 81.609375 Z M 103.644531 86.113281 C 101.421875 89.972656 99.140625 93.652344 96.824219 97.128906 C 92.605469 97.429688 88.246094 97.585938 83.800781 97.585938 C 79.375 97.585938 75.070312 97.449219 70.925781 97.179688 C 68.515625 93.660156 66.183594 89.964844 63.976562 86.148438 C 61.773438 82.335938 59.746094 78.496094 57.910156 74.675781 C 59.746094 70.851562 61.769531 67.003906 63.957031 63.203125 C 66.152344 59.390625 68.464844 55.714844 70.851562 52.214844 C 75.082031 51.894531 79.417969 51.726562 83.800781 51.726562 C 88.207031 51.726562 92.546875 51.894531 96.773438 52.21875 C 99.128906 55.691406 101.421875 59.355469 103.628906 63.167969 C 105.855469 67.023438 107.90625 70.84375 109.753906 74.59375 C 107.910156 78.402344 105.867188 82.261719 103.644531 86.113281 Z M 116.175781 18.207031 C 120.941406 20.957031 122.792969 32.039062 119.796875 46.578125 C 119.609375 47.503906 119.394531 48.449219 119.160156 49.40625 C 113.261719 48.042969 106.855469 47.03125 100.148438 46.402344 C 96.238281 40.832031 92.191406 35.765625 88.125 31.382812 C 89.21875 30.332031 90.3125 29.328125 91.394531 28.382812 C 101.894531 19.238281 111.710938 15.625 116.175781 18.207031 Z M 83.800781 61.816406 C 90.8125 61.816406 96.5 67.507812 96.5 74.53125 C 96.5 81.546875 90.8125 87.242188 83.800781 87.242188 C 76.792969 87.242188 71.101562 81.546875 71.101562 74.53125 C 71.101562 67.507812 76.792969 61.816406 83.800781 61.816406 Z M 83.800781 61.816406 " fill-opacity="1" fill-rule="nonzero"/></g></svg>