<svg xmlns="http://www.w3.org/2000/svg" xmlns:xlink="http://www.w3.org/1999/xlink" width="500" zoomAndPan="magnify" viewBox="0 0 375 374.999991" height="500" preserveAspectRatio="xMidYMid meet" version="1.0"><path fill="#326ce5" d="M 184.375 5.171875 C 181.152344 5.332031 178.085938 6.109375 175.179688 7.5 L 49.707031 67.5 C 48.082031 68.273438 46.566406 69.21875 45.15625 70.335938 C 43.75 71.449219 42.480469 72.707031 41.359375 74.105469 C 40.234375 75.503906 39.28125 77.007812 38.5 78.621094 C 37.71875 80.234375 37.125 81.910156 36.726562 83.65625 L 5.769531 218.429688 C 5.414062 219.980469 5.214844 221.554688 5.175781 223.144531 C 5.136719 224.738281 5.253906 226.316406 5.535156 227.886719 C 5.816406 229.453125 6.25 230.980469 6.835938 232.460938 C 7.425781 233.941406 8.15625 235.351562 9.027344 236.6875 C 9.449219 237.34375 9.90625 237.972656 10.390625 238.582031 L 97.238281 346.648438 C 98.363281 348.046875 99.628906 349.304688 101.039062 350.417969 C 102.449219 351.535156 103.964844 352.480469 105.585938 353.253906 C 107.210938 354.03125 108.902344 354.617188 110.660156 355.015625 C 112.414062 355.414062 114.195312 355.613281 115.996094 355.609375 L 255.269531 355.578125 C 257.070312 355.582031 258.851562 355.382812 260.605469 354.988281 C 262.363281 354.589844 264.054688 354.003906 265.675781 353.230469 C 267.300781 352.457031 268.816406 351.511719 270.226562 350.398438 C 271.636719 349.285156 272.902344 348.03125 274.027344 346.632812 L 360.84375 238.550781 C 361.96875 237.152344 362.921875 235.648438 363.703125 234.035156 C 364.488281 232.421875 365.078125 230.742188 365.480469 229 C 365.882812 227.253906 366.082031 225.488281 366.082031 223.699219 C 366.082031 221.90625 365.882812 220.140625 365.480469 218.394531 L 334.476562 83.621094 C 334.078125 81.878906 333.484375 80.199219 332.703125 78.589844 C 331.921875 76.976562 330.96875 75.472656 329.84375 74.074219 C 328.722656 72.675781 327.453125 71.417969 326.046875 70.304688 C 324.636719 69.1875 323.121094 68.242188 321.496094 67.464844 L 196.007812 7.5 C 192.328125 5.738281 188.453125 4.964844 184.375 5.171875 Z M 184.375 5.171875 " fill-opacity="1" fill-rule="nonzero"/><path stroke-linecap="butt" transform="matrix(0.513506, 0, 0, 0.513914, -3.21636, -89.807454)" fill-opacity="1" fill="#ffffff" fill-rule="nonzero" stroke-linejoin="miter" d="M 367.733795 274.058852 C 359.655143 274.058852 353.1055 281.332994 353.1055 290.309755 C 353.1055 290.446573 353.135929 290.57579 353.143536 290.712608 C 353.128322 291.936366 353.067465 293.403356 353.1055 294.467494 C 353.303283 299.643764 354.429122 303.603876 355.106146 308.369693 C 356.338483 318.577814 357.373037 327.037709 356.734048 334.904727 C 356.117879 337.869111 353.927058 340.582662 351.987269 342.467706 L 351.637346 348.654907 C 342.866455 349.377 334.0271 350.714773 325.20296 352.713832 C 287.228727 361.340949 254.533765 380.89828 229.643604 407.311698 C 228.023309 406.209556 225.201105 404.180093 224.356726 403.556812 C 221.747519 403.914059 219.107884 404.719763 215.669512 402.713103 C 209.127477 398.312133 203.163575 392.231346 195.952122 384.903998 C 192.650677 381.399945 190.254466 378.063113 186.329245 374.688276 C 185.439224 373.920577 184.077568 372.879242 183.081048 372.08874 C 180.007813 369.641223 176.386873 368.364258 172.887645 368.250243 C 168.391897 368.090622 164.063504 369.85405 161.233693 373.40371 C 156.197848 379.720127 157.810536 389.373377 164.824206 394.967701 C 164.900276 395.020908 164.976346 395.066513 165.044809 395.11972 C 166.010901 395.902622 167.189988 396.905951 168.080009 397.559636 C 172.241048 400.638035 176.052164 402.211438 180.205596 404.651354 C 188.946059 410.055653 196.203154 414.532633 201.954059 419.936932 C 204.198129 422.331242 204.593694 426.549788 204.890368 428.374024 L 209.576291 432.562166 C 184.48074 470.323853 172.872431 516.971091 179.73396 564.500042 L 173.610311 566.278672 C 171.997624 568.361342 169.715518 571.644967 167.326915 572.625494 C 159.803574 574.9894 151.329356 575.863513 141.105525 576.935251 C 136.305497 577.330503 132.167279 577.094872 127.078184 578.060197 C 125.959952 578.273025 124.392907 578.675877 123.168177 578.964714 C 123.130142 578.972315 123.092107 578.987517 123.046465 578.995118 C 122.978002 579.01032 122.894324 579.048325 122.825861 579.055926 C 114.20711 581.138595 108.669201 589.066421 110.449243 596.872632 C 112.236893 604.678842 120.657861 609.429457 129.329861 607.559615 C 129.390717 607.544413 129.482002 607.544413 129.542858 607.529211 C 129.641749 607.506408 129.733033 607.460802 129.824317 607.437999 C 131.033833 607.171965 132.54763 606.875526 133.605005 606.59429 C 138.610423 605.248916 142.23897 603.280261 146.734718 601.562439 C 156.410844 598.088789 164.428641 595.192814 172.233441 594.060268 C 175.496852 593.801834 178.927617 596.074528 180.639196 597.024651 L 187.013876 595.937711 C 201.687814 641.414397 232.427772 678.180355 271.360488 701.249341 L 268.705639 707.618965 C 269.656517 710.096886 270.713892 713.448919 269.998832 715.888835 C 267.161415 723.254188 262.30053 731.022394 256.762622 739.687515 C 254.084951 743.685633 251.338818 746.794435 248.919786 751.370227 C 248.341653 752.464769 247.603772 754.152187 247.04846 755.307537 C 243.290593 763.349378 246.044334 772.614977 253.263393 776.088626 C 260.528095 779.585079 269.550018 775.898602 273.452418 767.841559 C 273.460025 767.826357 273.475239 767.818756 273.482846 767.811155 C 273.490453 767.803554 273.482846 767.788352 273.482846 767.780751 C 274.038159 766.633003 274.829289 765.135609 275.293317 764.056269 C 277.370032 759.313255 278.054664 755.246729 279.515211 750.655735 C 283.387183 740.934077 285.509541 730.733556 290.834454 724.379134 C 292.295001 722.638509 294.675998 721.969622 297.140671 721.308337 L 300.449724 715.31116 C 334.392237 728.339247 372.381683 731.835699 410.325487 723.216184 C 418.982274 721.247529 427.342386 718.7088 435.421039 715.653205 C 436.349095 717.302618 438.083495 720.479829 438.547523 721.277933 C 441.050232 722.091238 443.788758 722.516893 446.017614 725.808119 C 450.003692 732.6186 452.727004 740.675643 456.043664 750.404902 C 457.504211 754.995897 458.226878 759.062423 460.295987 763.813038 C 460.767622 764.892377 461.551145 766.412574 462.106457 767.560323 C 466.00125 775.647769 475.053601 779.349449 482.32591 775.837794 C 489.54497 772.364144 492.306317 763.098545 488.54845 755.056704 C 487.985531 753.901355 487.217222 752.221538 486.639089 751.119395 C 484.220057 746.543603 481.473924 743.465204 478.796254 739.467087 C 473.258345 730.801965 468.663706 723.611435 465.826288 716.246081 C 464.639594 712.453191 466.024071 710.089285 466.952127 707.618965 C 466.396815 706.988083 465.21012 703.400419 464.517881 701.713001 C 504.972001 677.83071 534.814332 639.696574 548.826458 595.656474 C 550.720606 595.952913 554.006837 596.530588 555.079427 596.751016 C 557.277855 595.299228 559.301322 593.406583 563.264578 593.718224 C 571.069378 594.843169 579.087175 597.746745 588.763301 601.212794 C 593.266656 602.938217 596.887596 604.937276 601.893014 606.275049 C 602.950389 606.563886 604.464186 606.82232 605.673702 607.088354 C 605.764986 607.111157 605.85627 607.164364 605.955161 607.187167 C 606.016017 607.202369 606.107302 607.202369 606.168158 607.217571 C 614.840158 609.079812 623.261126 604.336798 625.048776 596.530588 C 626.828818 588.724377 621.290909 580.796551 612.672158 578.713882 C 611.417 578.432645 609.636958 577.946182 608.419835 577.718153 C 603.33074 576.752828 599.192523 576.988458 594.392494 576.593207 C 584.168663 575.521468 575.694445 574.647355 568.171104 572.275848 C 565.105476 571.090095 562.922262 567.434022 561.85728 565.936628 L 555.954234 564.218806 C 559.012255 542.061938 558.190697 519.008154 552.888606 495.931568 C 547.540872 472.649754 538.092956 451.351798 525.480521 432.59257 C 527.001925 431.216792 529.862163 428.678064 530.668507 427.933167 C 530.911932 425.310828 530.706542 422.559272 533.422248 419.655696 C 539.173153 414.251396 546.422641 409.774417 555.170711 404.370118 C 559.324143 401.930202 563.15808 400.356798 567.326725 397.2784 C 568.269996 396.579109 569.555582 395.484568 570.544494 394.686464 C 577.558164 389.09214 579.178459 379.438891 574.142613 373.122473 C 569.106768 366.806056 559.339357 366.213179 552.325687 371.807503 C 551.329167 372.598005 549.975118 373.631739 549.07749 374.40704 C 545.152269 377.781876 542.72563 381.118708 539.424185 384.622762 C 532.205125 391.95011 526.24883 398.061301 519.699188 402.462271 C 516.869377 404.119285 512.715945 403.549211 510.829405 403.435197 L 505.261068 407.40291 C 473.547411 374.141005 430.362372 352.881054 383.860673 348.746118 C 383.731354 346.800267 383.556392 343.27341 383.518357 342.216873 C 381.608996 340.392637 379.311676 338.842037 378.733543 334.904727 C 378.094554 327.037709 379.159536 318.577814 380.391873 308.369693 C 381.068897 303.603876 382.194736 299.643764 382.392519 294.467494 C 382.430554 293.289341 382.36209 291.57912 382.36209 290.309755 C 382.354483 281.332994 375.812448 274.058852 367.733795 274.058852 Z M 349.423704 387.495934 L 345.080097 464.212663 L 344.768209 464.372283 C 344.471535 471.235972 338.827128 476.716281 331.889528 476.716281 C 329.052111 476.716281 326.427689 475.804163 324.297725 474.245961 L 324.168405 474.306769 L 261.265976 429.719398 C 280.595408 410.701737 305.325822 396.655119 333.829318 390.186682 C 339.032518 389.000928 344.235718 388.126815 349.423704 387.495934 Z M 386.074315 387.495934 C 419.34741 391.592864 450.125404 406.658014 473.699552 429.749802 L 411.200295 474.055936 L 410.987298 473.964725 C 405.434175 478.016049 397.621768 477.012719 393.293375 471.593218 C 391.528547 469.37373 390.592884 466.758992 390.486385 464.121451 L 390.417922 464.091047 Z M 238.45253 458.375107 L 295.89312 509.750156 L 295.824657 510.061796 C 301.012643 514.56918 301.773345 522.390592 297.452559 527.810094 C 295.680124 530.029581 293.306734 531.519374 290.765991 532.218664 L 290.705134 532.469497 L 217.07681 553.714246 C 213.326551 519.449011 221.405203 486.141501 238.45253 458.375107 Z M 496.611889 458.405511 C 505.139356 472.239301 511.605321 487.6845 515.454472 504.437068 C 519.250374 520.98441 520.208858 537.501348 518.641812 553.463414 L 444.640744 532.150255 L 444.579888 531.838615 C 437.954176 530.029581 433.876814 523.287508 435.421039 516.530234 C 436.052421 513.755875 437.520576 511.414772 439.513614 509.681747 L 439.483186 509.529728 Z M 355.950525 513.71787 L 379.486638 513.71787 L 394.107326 531.998236 L 388.858484 554.808788 L 367.733795 564.963702 L 346.548251 554.778384 L 341.299409 531.967832 Z M 431.389319 576.281567 C 432.393446 576.22836 433.382358 576.319572 434.356056 576.494394 L 434.485376 576.342375 L 510.63923 589.218441 C 499.494949 620.526893 478.164871 647.654804 449.668983 665.805953 L 420.108112 594.402312 L 420.199396 594.280696 C 417.483691 587.97188 420.207003 580.568522 426.452365 577.558532 C 428.049839 576.790833 429.723383 576.365178 431.389319 576.281567 Z M 303.484924 576.593207 C 309.296686 576.669217 314.507493 580.705339 315.861542 586.618905 C 316.492924 589.393264 316.181037 592.137219 315.138875 594.561933 L 315.359479 594.843169 L 286.110496 665.524717 C 258.763267 647.981646 236.976769 621.705046 225.330424 589.469274 L 300.830075 576.654015 L 300.951787 576.806035 C 301.796166 576.654015 302.655759 576.578005 303.484924 576.593207 Z M 367.26216 607.559615 C 369.285627 607.483605 371.347129 607.901659 373.294525 608.844181 C 375.85809 610.075541 377.835915 612.013791 379.075859 614.339692 L 379.357319 614.339692 L 416.578456 681.593197 C 411.748 683.212206 406.780617 684.595585 401.699129 685.743334 C 373.241276 692.211771 344.8671 690.250717 319.170595 681.494384 L 356.292841 614.370096 L 356.361304 614.370096 C 358.582553 610.204757 362.812055 607.726837 367.26216 607.559615 Z M 367.26216 607.559615 " stroke="#ffffff" stroke-width="0.25" stroke-opacity="1" stroke-miterlimit="4"/></svg>