<svg xmlns="http://www.w3.org/2000/svg" version="1.1" xmlns:xlink="http://www.w3.org/1999/xlink" xmlns:svgjs="http://svgjs.dev/svgjs" width="100%" height="100%" viewBox="0 0 1000 600"><rect width="1000" height="600" x="0" y="0" fill="#141a46"/><g><circle r="166.66666666666666" cx="338.66701761881507" cy="360.88914358132854" fill="#ec8b5e" transform="matrix(0.7267432377030383,0,0,0.7267432377030382,0,37.726264390700706)"/><path d="M218.46005884276926 435.8891636172193L218.46005884276926 435.8891636172193Q212.64534124917455 435.8891636172193 207.0277327265492 434.3911346778525Q201.42983511102076 432.91281664558267 197.80302820518543 429.06918976168106Q194.19593220644705 425.24527378487653 194.19593220644705 418.28732357965976L194.19593220644705 418.28732357965976L194.19593220644705 416.8681382686808Q194.19593220644705 415.74461656415565 194.39304127741636 414.3254312531766Q194.6098612554826 412.90624594219764 195.45743026065063 412.90624594219764L195.45743026065063 412.90624594219764Q196.32471017291562 412.90624594219764 196.32471017291562 413.89179129704416L196.32471017291562 413.89179129704416Q196.32471017291562 414.4634076028551 196.24586654452787 415.1730002583447Q196.16702291614016 415.8825929138342 196.16702291614016 416.59218556932376L196.16702291614016 416.59218556932376Q196.16702291614016 423.1164958184079 199.931806171654 426.9404117952125Q203.69658942716785 430.78403867911413 209.29448704269626 432.42004396815935Q214.91209556532166 434.0363383501077 220.29317320278383 434.0363383501077L220.29317320278383 434.0363383501077Q229.67556498092304 434.0363383501077 237.7570368906648 430.56721870104786Q245.83850880040657 427.098099051988 252.73732628433245 421.2636705512964Q259.61643286116146 415.44895295770175 265.35230682636836 408.4318700311942Q271.10789169867223 401.3950761975898 275.93706393742036 394.2991496426946L275.93706393742036 394.2991496426946Q265.70710315411316 391.32280267105807 256.91603858888186 385.0153124000401Q248.12497402365057 378.68811122192517 242.80302910747918 369.62109395733694Q237.48108419130776 360.53436578565163 237.48108419130776 349.3188596474978L237.48108419130776 349.3188596474978Q237.48108419130776 338.5369934654765 242.15256917328045 330.15985794928076Q246.84376506235006 321.78272243308504 254.57044064434703 315.5343648833579Q262.31682713344094 309.3057182407277 271.60066437609555 305.10729502908134Q280.904212525847 300.92858272453196 289.9909406975322 298.66182840838485L289.9909406975322 298.66182840838485Q299.35362156857457 296.23738683546236 308.85427878929534 295.1729978522281Q318.37464691711307 294.10860886899377 327.87530413783384 293.8326561696368L327.87530413783384 293.8326561696368Q331.2852910656029 293.5369925631828 334.695277993372 293.5369925631828Q338.0855540140442 293.5369925631828 341.35756459213474 293.5369925631828L341.35756459213474 293.5369925631828Q345.1814805689394 293.5369925631828 349.025107452841 293.6158361915705Q352.8490234296456 293.69467981995825 356.53496305677163 293.69467981995825L356.53496305677163 293.69467981995825Q357.5402193187151 293.69467981995825 359.4521773071175 294.049476147703Q361.36413529551976 294.4042724754478 361.36413529551976 295.96143413610537L361.36413529551976 295.96143413610537Q361.36413529551976 296.9469794909519 360.437722661964 297.51859579676284Q359.53102093550524 298.0902121025739 358.6637410232403 298.0902121025739L358.6637410232403 298.0902121025739Q357.2445557122612 298.0902121025739 355.9042140296699 297.38061944708437Q354.5638723470786 296.67102679159484 352.5730707302886 296.67102679159484L352.5730707302886 296.67102679159484Q348.0198511908975 296.67102679159484 343.269522580537 300.4358100471087Q338.5191939701766 304.1808823955256 333.827998081107 310.37010722396195Q329.1565130991344 316.5396211453014 324.7609808165188 323.8523676782628Q320.3457376268061 331.1454033041274 316.65979799968 338.45814983708874Q312.9738583725539 345.7708963700502 310.2734641002744 351.88127757009886Q307.5730698279948 357.97194786305056 306.0159081673372 361.3819347908196L306.0159081673372 361.3819347908196L306.5875244731483 361.9535510966307Q311.98831301770736 354.8576245417355 319.7938322280921 346.04684906940724Q327.5993514384768 337.25578450417595 336.8831886811314 328.16905633249075Q346.18673683088286 319.08232816080556 356.18016672902695 310.8628799013852Q366.1933075342679 302.623720734868 375.98962836144267 296.5330504419163Q385.78594918861745 290.42266924186765 394.4390374041702 287.7222749695881L394.4390374041702 287.7222749695881Q400.5297076971219 285.88916060957354 407.34968155266006 285.88916060957354L407.34968155266006 285.88916060957354Q411.0356211797862 285.88916060957354 415.23404439143246 286.79586233603237Q419.4127566959819 287.7222749695881 423.17753995149576 289.7919202147659Q426.9423232070096 291.8418545528467 429.26821024444746 295.03502150254957Q431.61380818898226 298.2281884522524 431.61380818898226 302.76169708454654L431.61380818898226 302.76169708454654Q431.61380818898226 307.45289297361614 428.9134139167028 311.35565257880853Q426.23273055152004 315.2584121840009 422.03430733987375 318.372735505316Q417.8555950353243 321.5067697337281 413.24324277464245 323.77352404987516Q408.6308905139606 326.0402783660222 404.9449508868345 327.4594636770013L404.9449508868345 327.4594636770013Q404.0776709745695 327.7551272834552 403.66374192553394 327.7551272834552L403.66374192553394 327.7551272834552Q402.3825329642334 327.7551272834552 402.3825329642334 326.8878473711902L402.3825329642334 326.8878473711902Q402.3825329642334 326.3359419724761 402.81617292036594 325.98114564473144Q403.2301019694015 325.62634931698665 403.66374192553394 325.46866206021116L403.66374192553394 325.46866206021116Q405.65454354232406 324.7590694047217 407.4876579023386 324.12832037761984Q409.3404831694502 323.4975713505181 411.1735975294647 322.7879786950285L411.1735975294647 322.7879786950285Q414.58358445723377 321.2111061272741 418.84114039017095 318.66839911177Q423.098696323108 316.1059811891689 426.29186327281093 312.5580179117213Q429.4850302225137 309.01005463427373 429.4850302225137 304.7524987013366L429.4850302225137 304.7524987013366Q429.4850302225137 301.3425117735675 427.43509588443294 299.01662473612964Q425.3654506392551 296.67102679159484 422.25112731794 295.31097420190656Q419.13680399662485 293.97063251931525 415.78594979014656 293.3990162135043Q412.45480649076524 292.82739990769323 409.75441221848564 292.82739990769323L409.75441221848564 292.82739990769323Q406.20644894103805 292.82739990769323 402.52050931391193 293.3990162135043Q398.8345696867858 293.97063251931525 395.42458275901674 295.11386513093726L395.42458275901674 295.11386513093726Q387.34311084927504 297.51859579676284 377.7636100001665 303.27418066906677Q368.184109151058 309.01005463427373 358.2498119742047 316.7564411233676Q348.3155147973514 324.48311670536464 338.95283392630915 333.0770721996266Q329.57044214816995 341.65131678679165 321.7649229377852 349.8116323249211Q313.9594037274005 357.97194786305056 308.5783260899383 364.4962581121348L308.5783260899383 364.4962581121348Q313.4074983286864 370.60663931218346 317.8621633325928 377.20979318965533Q322.33653924359623 383.8129470671273 327.02773513266584 390.1992809665329L327.02773513266584 390.1992809665329Q336.66636870306513 386.6513176890853 345.1814805689394 380.40296013935824Q353.6965924348136 374.15460258963105 358.6637410232403 364.92989806826733L358.6637410232403 364.92989806826733Q359.8069736348623 362.9390964514772 360.5954099187395 360.9482948346872Q361.36413529551976 358.97720412499405 362.07372795100935 356.98640250820404L362.07372795100935 356.98640250820404Q362.36939155746325 356.27680985271456 363.07898421295283 356.27680985271456L363.07898421295283 356.27680985271456Q364.2025059174779 356.27680985271456 364.2025059174779 357.2623552075611L364.2025059174779 357.2623552075611Q364.2025059174779 357.5580188140151 364.06452956779935 357.6959951636935L364.06452956779935 357.6959951636935Q361.5021116451983 365.91544342311386 356.0421903793484 372.5185973005857Q350.58226911349846 379.1217511780577 343.34836620892474 383.8720797884181Q336.11446330435103 388.6224083987785 328.1512568371909 391.61846627751197L328.1512568371909 391.61846627751197Q330.8516511094705 395.16642955495956 334.4784580153057 399.4831182091875Q338.0855540140442 403.81951777051233 342.421953575369 407.7222773757047Q346.7583531366938 411.6250369808971 351.5086817470542 414.10861127511043Q356.2590103574146 416.59218556932376 361.22615894584135 416.59218556932376L361.22615894584135 416.59218556932376Q366.46926023362494 416.59218556932376 369.5244508336493 413.9706349254319Q372.5796414336736 411.3293733744431 373.9199831162649 407.2295046982814Q375.2800357059532 403.10992511502286 375.2800357059532 398.5567055756318L375.2800357059532 398.5567055756318Q375.2800357059532 394.1611732930161 374.4324667007852 389.84448463878823Q373.5651867885201 385.5080850774633 372.4416650839951 381.38850549420476L372.4416650839951 381.38850549420476L372.4416650839951 380.9745764451692Q372.4416650839951 379.9693201832257 373.4272104388416 379.9693201832257L373.4272104388416 379.9693201832257Q374.2747794440097 379.9693201832257 374.9843720994992 382.3149181277605Q375.69396475498877 384.6605160722953 376.20644833950894 387.8536830219981Q376.69922101693226 391.046849971701 376.9160409949984 393.8063769652714Q377.1131500659677 396.5856148659386 377.1131500659677 397.57116022078515L377.1131500659677 397.57116022078515Q377.1131500659677 407.939097353771 371.5940960788271 414.8773366518907Q366.05533118458936 421.83528685710746 355.1157777457927 421.83528685710746L355.1157777457927 421.83528685710746Q346.4626895302399 421.83528685710746 339.7215593030894 417.8733945306243Q332.980429075939 413.89179129704416 327.7373277881553 407.5843010260262Q322.47451559327476 401.25709984791126 318.2169596603376 394.5948132491486L318.2169596603376 394.5948132491486Q307.8687334344488 397.1375202646527 296.929179995652 397.1375202646527L296.929179995652 397.1375202646527Q294.2484966304694 397.1375202646527 291.5481023581898 396.9404111936834Q288.8477080859102 396.72359121561715 286.0093374639522 396.42792760916313L286.0093374639522 396.42792760916313Q277.92786555421037 407.3674810479599 267.6387720496124 416.29652196286975Q257.3496785450143 425.24527378487653 245.06978342362626 430.56721870104786Q232.78988830223815 435.8891636172193 218.46005884276926 435.8891636172193ZM277.92786555421037 391.32280267105807L277.92786555421037 391.32280267105807Q282.895014142637 383.8129470671273 287.2905464252527 375.84974059996716Q291.6860787078683 367.90624503990387 296.0816109904839 359.9627494798407L296.0816109904839 359.9627494798407Q293.81485667433685 357.4003315572396 290.62168972463405 354.5619609352815Q287.42852277493125 351.7235903133235 283.88055949748366 349.8116323249211Q280.33259622003595 347.89967433651884 276.64665659290984 347.89967433651884L276.64665659290984 347.89967433651884Q275.79908758774184 347.89967433651884 274.8726749541861 348.1756270358758Q273.94626232063035 348.4712906423298 273.09869331546236 348.4712906423298L273.09869331546236 348.4712906423298Q272.5270770096513 348.4712906423298 272.5270770096513 347.89967433651884L272.5270770096513 347.89967433651884Q272.5270770096513 346.9141289816722 274.0842386703089 346.40164539715204Q275.64140033096635 345.9088727197287 277.49422559807795 345.63292002037167Q279.34705086518943 345.33725641391777 279.89895626390353 345.33725641391777L279.89895626390353 345.33725641391777Q285.2997448084626 345.33725641391777 290.26689339688926 348.1756270358758Q295.2340419853159 351.0139976578339 299.05795796212055 354.42398458560297L299.05795796212055 354.42398458560297Q301.75835223440015 349.4568359971763 305.73995546798017 342.7157057700259Q309.70184779446333 335.9745755428755 314.53102003321146 328.6618290099141Q319.3601922719596 321.3687933840496 324.68213718813104 314.6276631568991Q330.00408210430237 307.8865329297487 335.6808233482186 302.91938434132203Q341.35756459213474 297.9522357528954 346.89632948637234 295.82345778642684L346.89632948637234 295.82345778642684L339.50473932502314 295.66577052965135Q336.66636870306513 295.52779417997283 333.6900217314285 295.6066378083606Q330.71367475979196 295.66577052965135 327.87530413783384 295.96143413610537L327.87530413783384 295.96143413610537Q319.22221592228107 296.23738683546236 310.5691277067283 297.24264309740585Q301.8963285840787 298.2281884522524 293.3812167182044 300.4949427683995L293.3812167182044 300.4949427683995Q284.72812850265166 302.76169708454654 276.29186026516516 306.82214394651436Q267.8358811205817 310.8628799013852 260.8976418224619 316.81557384465845Q253.93969161724524 322.7879786950285 249.82011203398665 330.7314742550918Q245.70053245072805 338.674969815155 245.70053245072805 348.74724334168684L245.70053245072805 348.74724334168684Q245.70053245072805 358.68154051854015 250.0369320120529 367.1375196631236Q254.35362066628082 375.5737879006101 261.66636719924225 381.74330182194956Q268.9791137322037 387.912815743289 277.92786555421037 391.32280267105807ZM299.6295742679316 395.0087422981842L299.6295742679316 395.0087422981842Q308.14468613380575 395.0087422981842 317.23141430549106 393.03765158849103L317.23141430549106 393.03765158849103Q313.68345102804346 387.3609103445749 310.5691277067283 381.60532547227103Q307.4350934783163 375.84974059996716 303.74915385119016 370.46866296250494L303.74915385119016 370.46866296250494Q299.4915979182531 376.14540420642106 295.72681466273923 382.09809814969424Q291.96203140722537 388.0705030000644 287.8621627310637 393.885220593659L287.8621627310637 393.885220593659Q290.7005333530218 394.4568368994701 293.6768803246583 394.73278959882714Q296.653227296295 395.0087422981842 299.6295742679316 395.0087422981842ZM392.0145958312477 408.64869000926046L392.0145958312477 408.64869000926046Q384.64271657699544 408.64869000926046 380.9567769498693 405.51465578084844Q377.2708373227432 402.4003324595333 377.2708373227432 397.57116022078515L377.2708373227432 397.57116022078515Q377.2708373227432 392.32805893300156 381.44954962729264 386.13883410456515Q385.62826193184196 379.9693201832257 393.43378114222674 374.5882425457635L393.43378114222674 374.5882425457635L412.59278284044376 361.81557474695217Q411.0356211797862 358.5435641688616 409.4784595191286 355.13357724109255Q407.9212978584711 351.7235903133235 407.9212978584711 348.1756270358758L407.9212978584711 348.1756270358758Q407.9212978584711 346.04684906940724 408.49291416428207 344.2137347093927L408.49291416428207 344.2137347093927Q410.6216921307507 337.3937608538545 415.94363704692205 333.9837739260854Q421.2655819630935 330.5934979054133 426.37070690119856 330.4358106486378L426.37070690119856 330.4358106486378Q432.1854244947933 330.4358106486378 435.02379511675133 333.56984487704983Q437.86216573870945 336.684168198365 437.86216573870945 341.0797004809806L437.86216573870945 341.0797004809806Q437.86216573870945 345.49494367069315 434.9449514883636 350.38324863073217Q432.0474481451148 355.2715535907711 426.23273055152004 358.5435641688616L426.23273055152004 358.5435641688616Q422.9607199734295 360.3963894359731 421.6203782908382 361.3819347908196Q420.26032570115 362.36748014566626 419.2747803463035 362.9390964514772L419.2747803463035 362.9390964514772Q422.1131509682615 367.76826869022534 423.53233627924055 372.45946457929494Q424.9515215902196 377.1309495612676 424.9515215902196 381.38850549420476L424.9515215902196 381.38850549420476Q424.9515215902196 389.0560483549109 420.9107856353487 395.22556227625034Q416.85033877338094 401.3950761975898 409.4784595191286 405.0218831034251Q402.10658026487647 408.64869000926046 392.0145958312477 408.64869000926046ZM416.85033877338094 358.81951686821867L416.85033877338094 358.81951686821867Q417.8555950353243 358.1099242127291 418.9791167398495 357.12437885788256Q420.1223493514715 356.13883350303604 422.38910366761854 354.719648192057L422.38910366761854 354.719648192057Q426.6466596005556 351.88127757009886 428.77543756702426 348.03765068619737Q430.9042155334928 344.2137347093927 430.9042155334928 340.80374778162354L430.9042155334928 340.80374778162354Q430.9042155334928 337.531737203533 429.13023389476893 335.4818028654522Q427.3562522560452 333.4318685273713 423.9462653282761 333.4318685273713L423.9462653282761 333.4318685273713Q420.39830205082853 333.4318685273713 417.0080260301563 335.836599193197Q413.59803910238725 338.2413298590226 412.04087744172966 342.79454939841366L412.04087744172966 342.79454939841366Q411.60723748559724 344.2137347093927 411.60723748559724 345.63292002037167L411.60723748559724 345.63292002037167Q411.60723748559724 348.74724334168684 413.24324277464245 352.07838664106816Q414.8792480636878 355.42924084754645 416.85033877338094 358.81951686821867ZM392.0145958312477 406.36222478601644L392.0145958312477 406.36222478601644Q398.97254603646434 406.36222478601644 404.86610725844673 402.45946518082405Q410.7596684804291 398.5567055756318 414.3667644791676 392.32805893300156Q417.99357138500295 386.07970138327437 417.99357138500295 378.9837748283792L417.99357138500295 378.9837748283792Q417.99357138500295 375.71176425028864 417.14600237983484 372.30177732251957Q416.29843337466684 368.91150130184735 414.3076317578767 365.77746707343533L414.3076317578767 365.77746707343533Q413.1643991462548 366.3490833792463 409.69527949719486 368.2019086463579Q406.20644894103805 370.0350230063724 401.81091665842246 372.59744092897347Q397.41538437580675 375.1401479444776 393.72944474868063 377.9785185664357L393.72944474868063 377.9785185664357Q388.9002725099325 381.6841691006588 385.43115286087266 387.4200430658657Q381.94232230471584 393.17562793816955 381.94232230471584 398.1427765265962L381.94232230471584 398.1427765265962Q381.94232230471584 401.6907398040438 384.28792024925076 404.0363377485786Q386.63351819378545 406.36222478601644 392.0145958312477 406.36222478601644ZM448.64403192073075 406.0862720866594L448.64403192073075 406.0862720866594Q439.55730374904556 406.0862720866594 436.2261604496641 402.81426150856885Q432.8950171502828 399.56196183757527 432.8950171502828 395.58035860399514L432.8950171502828 395.58035860399514Q432.8950171502828 391.894418976869 434.7478424173943 388.83922837684474Q436.5809567774089 385.78403777682036 438.4337820445204 385.23213237810637L438.4337820445204 385.23213237810637Q439.71499100582093 382.94566715486235 441.1933090380908 380.2649837896797Q442.6913379774576 377.5645895174001 443.9725469387581 375.00217159479905L443.9725469387581 375.00217159479905Q446.5152539542622 369.8970466566939 449.2156482265418 365.284694396012Q451.9160424988213 360.67234213533015 455.1092094485242 357.83397151337203Q458.302376398227 354.995600891414 461.8503396756746 354.995600891414L461.8503396756746 354.995600891414Q463.5454776860107 354.995600891414 465.3983029531222 355.7051935469035L465.3983029531222 355.7051935469035Q467.23141731313683 356.5527625520716 467.23141731313683 357.4003315572396L467.23141731313683 357.4003315572396Q467.23141731313683 357.97194786305056 466.67951191442273 358.2676114695046Q466.1078956086118 358.5435641688616 465.3983029531222 358.4055878191831L465.3983029531222 358.4055878191831Q462.8358850305211 357.6959951636935 460.7071070640526 359.82477313016216Q458.57832909758406 361.9535510966307 458.57832909758406 365.6394907237568L458.57832909758406 365.6394907237568Q458.57832909758406 366.21110702956776 458.6571727259718 366.8418560566696Q458.7163054472626 367.4923159908683 458.8739927040381 368.2019086463579L458.8739927040381 368.2019086463579Q459.72156170920607 371.59218466703 460.6479743427618 376.00742785674254Q461.5546760692207 380.40296013935824 461.5546760692207 384.93646877165236L461.5546760692207 384.93646877165236Q461.5546760692207 386.6513176890853 461.4166997195422 388.3464556994214Q461.27872336986366 390.04159370975754 460.7071070640526 391.61846627751197L460.7071070640526 391.61846627751197Q458.8739927040381 396.8615675652957 455.68082575433516 399.91675816531995Q452.48765880463236 402.97194876534434 447.93443926524117 404.3911340763234L447.93443926524117 404.3911340763234Q451.34442619301035 404.5291104260019 455.1092094485242 403.7406741421246Q458.8739927040381 402.97194876534434 461.5546760692207 401.3950761975898L461.5546760692207 401.3950761975898Q466.2458719582903 398.71439283240716 469.87267886412565 394.02319694333755Q473.479774862864 389.33200105426795 476.318145484822 384.167743394872Q479.15651610678015 378.9837748283792 481.4232704229272 374.726218895442L481.4232704229272 374.726218895442Q481.5809576797027 374.15460258963105 482.29055033519217 374.15460258963105L482.29055033519217 374.15460258963105Q482.70447938422774 374.15460258963105 483.00014299068175 374.50939891737585Q483.2760956900387 374.8641952451205 483.00014299068175 375.29783520125306L483.00014299068175 375.29783520125306Q480.16177236872363 380.54093648903677 477.16571448999014 385.8628814052081Q474.1893675183535 391.18482632137955 470.5034278912274 395.6592022323829Q466.81748826410126 400.1335781433862 461.7123633259961 402.97194876534434L461.7123633259961 402.97194876534434Q456.1735984317585 406.0862720866594 448.64403192073075 406.0862720866594ZM442.8293143271361 403.6815414208338L442.8293143271361 403.6815414208338Q445.6676849490942 403.6815414208338 448.64403192073075 401.8287161537223Q451.6203788923673 399.97589088661084 452.90158785366793 396.42792760916313L452.90158785366793 396.42792760916313Q454.4587495143254 392.03239532654754 454.8135458420702 386.5724740606977Q455.168342169815 381.1125527948477 455.168342169815 376.2833805560996Q455.168342169815 371.45420831735146 455.32602942659037 368.91150130184735L455.32602942659037 368.91150130184735Q455.60198212594753 364.92989806826733 457.454807393059 361.4607784192074Q459.28792175307365 357.97194786305056 463.68345403568924 357.2623552075611L463.68345403568924 357.2623552075611Q462.6979086808427 356.69073890175 461.7123633259961 356.69073890175L461.7123633259961 356.69073890175Q459.28792175307365 356.69073890175 456.74521473756954 358.81951686821867Q454.18279681496847 360.9482948346872 452.90158785366793 362.66314375212016L452.90158785366793 362.66314375212016Q450.9107862368778 365.36353802439976 449.0776718768632 369.0494776515259Q447.2248466097517 372.735417278652 444.95809229360464 376.85499686191065L444.95809229360464 376.85499686191065L440.70053636066757 384.5225397226168Q441.1341763168 384.3648524658413 441.981745321968 384.3648524658413L441.981745321968 384.3648524658413Q444.24849963811505 384.3648524658413 444.8792486652169 385.64606142714183Q445.5297085994156 386.92727038844237 445.2340449929617 387.49888669425343L445.2340449929617 387.49888669425343Q444.8201159439261 387.3609103445749 444.4653196161813 387.28206671618716Q444.11052328843664 387.2032230877994 443.8148596819826 387.2032230877994L443.8148596819826 387.2032230877994Q441.41012901615704 387.2032230877994 439.6361473774333 389.1940247045894Q437.86216573870945 391.18482632137955 437.15257308322 393.5895569872051L437.15257308322 393.5895569872051Q436.8766203838629 394.5948132491486 436.71893312708744 395.52122588270436Q436.5809567774089 396.42792760916313 436.5809567774089 397.1375202646527L436.5809567774089 397.1375202646527Q436.5809567774089 400.5475071924218 438.4337820445204 402.1046688530794Q440.26689640453503 403.6815414208338 442.8293143271361 403.6815414208338Z " fill="#141a46" transform="matrix(0.7267432377030383,0,0,0.7267432377030382,0,37.726264390700706)"/><path d="M609.4002308367868 414.06118346828646L609.4002308367868 414.06118346828646Q604.4316701795863 414.06118346828646 599.6315353073757 412.78114750236364Q594.848243013664 411.5179541149398 591.7492085698508 408.23365130763773Q588.6670167045366 404.96619107883475 588.6670167045366 399.0207608686932L588.6670167045366 399.0207608686932L588.6670167045366 397.8080952167662Q588.6670167045366 396.8480682423241 588.8354424895264 395.63540259039723Q589.0207108530152 394.4227369384703 589.7449417284716 394.4227369384703L589.7449417284716 394.4227369384703Q590.486015182427 394.4227369384703 590.486015182427 395.2648658634196L590.486015182427 395.2648658634196Q590.486015182427 395.7533006398901 590.418644868431 396.35963346585356Q590.351274554435 396.96596629181704 590.351274554435 397.5722991177804L590.351274554435 397.5722991177804Q590.351274554435 403.1471926009443 593.5682070477411 406.4146528297474Q596.7851395410472 409.6989556370494 601.5684318347588 411.09688965246517Q606.3685667069695 412.47798108938184 610.9665906371923 412.47798108938184L610.9665906371923 412.47798108938184Q618.983658002709 412.47798108938184 625.8891151872928 409.51368727356055Q632.7945723718765 406.54939345773926 638.6894748465212 401.5639902220398Q644.5675347426668 396.5954295648394 649.4687250858714 390.5994716192008Q654.3867580075749 384.58667109506325 658.5131897398261 378.5233428354287L658.5131897398261 378.5233428354287Q649.771891498853 375.98011348208206 642.2601014883058 370.590488362407Q634.7483114777586 365.1840206642329 630.2008152830329 357.4364345546999Q625.6533190883071 349.672005866668 625.6533190883071 340.08857870074564L625.6533190883071 340.08857870074564Q625.6533190883071 330.8756882618011 629.6450101925664 323.71759239973255Q633.6535438753248 316.5594965376641 640.2558346469267 311.2203991534859Q646.8749679970277 305.8981443478068 654.8078224700495 302.31067512752304Q662.7575195215703 298.74004848573827 670.5219482096021 296.803151958355L670.5219482096021 296.803151958355Q678.5221729966199 294.7315148029799 686.6402958331306 293.82201556403476Q694.77526124814 292.91251632508954 702.8933840846508 292.67672022610384L702.8933840846508 292.67672022610384Q705.807150164975 292.42408154861903 708.7209162452995 292.42408154861903Q711.6178397471248 292.42408154861903 714.4137077779563 292.42408154861903L714.4137077779563 292.42408154861903Q717.6811680067593 292.42408154861903 720.9654708140614 292.49145186261495Q724.2329310428644 292.5588221766109 727.3824932221745 292.5588221766109L727.3824932221745 292.5588221766109Q728.2414647256227 292.5588221766109 729.8751948400242 292.8619885895926Q731.5089249544257 293.16515500257435 731.5089249544257 294.49571870399416L731.5089249544257 294.49571870399416Q731.5089249544257 295.33784762894334 730.7173237649735 295.82628240541396Q729.9425651540201 296.3147171818845 729.2014917000648 296.3147171818845L729.2014917000648 296.3147171818845Q727.9888260481379 296.3147171818845 726.8435307102069 295.708384355921Q725.6982353722761 295.1020515299576 723.9971349438787 295.1020515299576L723.9971349438787 295.1020515299576Q720.1064993106132 295.1020515299576 716.0474378923578 298.3189840232636Q711.9883764741024 301.51907393807073 707.9798427913441 306.80764358675196Q703.9881516870847 312.07937065693415 700.2322566818112 318.32796728005746Q696.4595190980386 324.55972132468185 693.3099569187285 330.8083179478051Q690.1603947394184 337.0569145709285 687.8529614850573 342.27811390561374Q685.5455282306965 347.4824706618 684.2149645292767 350.3962367421243L684.2149645292767 350.3962367421243L684.7033993057472 350.8846715185949Q689.3182658144691 344.8213432589604 695.987926900067 337.2927106699142Q702.6575879856649 329.7809206593671 710.5904424586869 322.0164919713351Q718.5401395102075 314.2520632833032 727.0793268091928 307.22870804922655Q735.635356686677 300.1885102366509 744.0061182006724 294.98415348046467Q752.3768797146678 289.7629541457794 759.7707716757221 287.45552089141853L759.7707716757221 287.45552089141853Q764.9751284319083 285.88916109101297 770.8026605925571 285.88916109101297L770.8026605925571 285.88916109101297Q773.9522227718672 285.88916109101297 777.539691992151 286.6639197019663Q781.1103186339357 287.45552089141853 784.3272511272418 289.2239916338119Q787.5441836205479 290.9756197977064 789.5316078834279 293.70411751454185Q791.5358747248071 296.4326152313773 791.5358747248071 300.3064082861439L791.5358747248071 300.3064082861439Q791.5358747248071 304.3149419689022 789.2284414704462 307.64977251170114Q786.9378507945843 310.9846030545001 783.3503815743005 313.6457304573397Q779.7797549325159 316.3237004386783 775.8385915637535 318.2605969660615Q771.897428194991 320.19749349344477 768.7478660156809 321.4101591453717L768.7478660156809 321.4101591453717Q768.0067925617255 321.6627978228564 767.653098413247 321.6627978228564L767.653098413247 321.6627978228564Q766.5583308108129 321.6627978228564 766.5583308108129 320.9217243689011L766.5583308108129 320.9217243689011Q766.5583308108129 320.4501321709296 766.9288675377906 320.1469657579478Q767.2825616862693 319.8437993449661 767.653098413247 319.70905871697425L767.653098413247 319.70905871697425Q769.3541988416445 319.1027258910108 770.92055864205 318.5637633790433Q772.5037610209546 318.0248008670758 774.0701208213601 317.4184680411123L774.0701208213601 317.4184680411123Q776.9838869016845 316.0710617611935 780.6218838574651 313.8983691348245Q784.2598808132458 311.7088339299565 786.9883785300814 308.67716980013927Q789.7168762469167 305.645505670322 789.7168762469167 302.0075087145413L789.7168762469167 302.0075087145413Q789.7168762469167 299.09374263421694 787.9652480830224 297.1063183713368Q786.196777340629 295.1020515299576 783.5356499377893 293.93991361352766Q780.8745225349497 292.7946182755967 778.0112841901224 292.3061834991261Q775.164888423794 291.81774872265555 772.8574551694331 291.81774872265555L772.8574551694331 291.81774872265555Q769.8257910396159 291.81774872265555 766.6762288603057 292.3061834991261Q763.5266666809956 292.7946182755967 760.6129006006712 293.77148782853783L760.6129006006712 293.77148782853783Q753.7074434160876 295.82628240541396 745.521950265581 300.7443153271174Q737.3364571150745 305.645505670322 728.8477975515863 312.264639020423Q720.3591379880978 318.86692979202496 712.3589132010801 326.2102940175823Q704.3418458355635 333.5368156646407 697.6721847499656 340.5096431632203Q691.0025236643677 347.4824706618 686.4044997341447 353.0573641449639L686.4044997341447 353.0573641449639Q690.530931466396 358.27856347964916 694.3373542071666 363.92082727680906Q698.1606195264361 369.56309107396885 702.1691532091944 375.0200865076399L702.1691532091944 375.0200865076399Q710.4051740951978 371.98842237782264 717.6811680067593 366.64932499364454Q724.9571619183208 361.31022760946644 729.2014917000648 353.4279008719416L729.2014917000648 353.4279008719416Q730.1783612530061 351.7268004435441 730.8520643929654 350.02570001514664Q731.5089249544257 348.34144216524817 732.1152577803892 346.6403417368507L732.1152577803892 346.6403417368507Q732.367896457874 346.03400891088734 732.9742292838374 346.03400891088734L732.9742292838374 346.03400891088734Q733.9342562582796 346.03400891088734 733.9342562582796 346.8761378358365L733.9342562582796 346.8761378358365Q733.9342562582796 347.1287765133213 733.8163582087867 347.2466745628142L733.8163582087867 347.2466745628142Q731.6268230039187 354.27002979689087 726.9614287597 359.91229359405065Q722.2960345154812 365.55455739121055 716.1148082063538 369.61361880946583Q709.9335818972264 373.6726802277211 703.1291801836365 376.23275215956687L703.1291801836365 376.23275215956687Q705.4366134379974 379.26441628938403 708.5356478818106 382.95294098066177Q711.6178397471248 386.6583082504384 715.3232070169014 389.99313879323734Q719.028574286678 393.3279693360363 723.0876357049334 395.4501342269084Q727.1466971231888 397.5722991177804 731.3910269049328 397.5722991177804L731.3910269049328 397.5722991177804Q735.8711527856627 397.5722991177804 738.4817524530055 395.33223617741544Q741.092352120348 393.0753306585515 742.237647458279 389.5720743307627Q743.3997853747088 386.0519754244749 743.3997853747088 382.16133979120946L743.3997853747088 382.16133979120946Q743.3997853747088 378.40544478593586 742.6755544992526 374.71692009465824Q741.9344810452973 371.0115528248816 740.9744540708551 367.49145391859383L740.9744540708551 367.49145391859383L740.9744540708551 367.13775977011517Q740.9744540708551 366.2787882666669 741.8165829958044 366.2787882666669L741.8165829958044 366.2787882666669Q742.5408138712606 366.2787882666669 743.1471466972242 368.283055108046Q743.7534795231876 370.2873219494253 744.1913865641612 373.01581966626077Q744.6124510266358 375.74431738309625 744.7977193901246 378.1022783729542Q744.9661451751145 380.477081941311 744.9661451751145 381.31921086626016L744.9661451751145 381.31921086626016Q744.9661451751145 390.17840715672617 740.2502231953989 396.10699478836875Q735.5174586371842 402.05242499851033 726.1698275702475 402.05242499851033L726.1698275702475 402.05242499851033Q718.7759356091934 402.05242499851033 713.0157737625406 398.6670667202144Q707.2556119158877 395.2648658634196 702.7754860351578 389.8752407437445Q698.278517575929 384.4687730455704 694.6405206201483 378.7759815129135L694.6405206201483 378.7759815129135Q685.7981669081813 380.9486741392825 676.4505358412448 380.9486741392825L676.4505358412448 380.9486741392825Q674.1599451653829 380.9486741392825 671.8525119110219 380.78024835429267Q669.5450786566611 380.59497999080384 667.1197473528073 380.34234131331914L667.1197473528073 380.34234131331914Q660.2142901682236 389.68997238025565 651.4224641917535 397.3196604402957Q642.6306382152835 404.96619107883475 632.1377118104161 409.51368727356055Q621.6447854055485 414.06118346828646 609.4002308367868 414.06118346828646ZM660.2142901682236 375.98011348208206L660.2142901682236 375.98011348208206Q664.4586199499678 369.56309107396885 668.2145149552413 362.7586893603791Q671.9704099605149 355.9711302252882 675.7263049657885 349.18357109019746L675.7263049657885 349.18357109019746Q673.7894084384052 346.99403588532937 671.0609107215697 344.5687045814756Q668.3324130047341 342.1433732776218 665.300748874917 340.5096431632203Q662.2690847450997 338.8759130488188 659.1195225657896 338.8759130488188L659.1195225657896 338.8759130488188Q658.3952916903332 338.8759130488188 657.6036905008809 339.1117091478046Q656.8120893114286 339.3643478252893 656.0878584359723 339.3643478252893L656.0878584359723 339.3643478252893Q655.5994236595017 339.3643478252893 655.5994236595017 338.8759130488188L655.5994236595017 338.8759130488188Q655.5994236595017 338.0337841238695 656.9299873609215 337.595877082896Q658.2605510623413 337.17481262042133 659.8437534412459 336.9390165214355Q661.4269558201505 336.6863778439508 661.898548018122 336.6863778439508L661.898548018122 336.6863778439508Q666.5134145268438 336.6863778439508 670.757744308588 339.1117091478046Q675.002074090332 341.5370404516584 678.2695343191352 344.4508065319827L678.2695343191352 344.4508065319827Q680.5769675734961 340.2064767502386 683.979168430291 334.44631490358586Q687.3645267085868 328.6861530569331 691.4909584408382 322.43755643380973Q695.6173901730893 316.2058023891854 700.1648863678153 310.4456405425326Q704.7123825625412 304.68547869587985 709.5630451702488 300.44114891413574Q714.4137077779563 296.1968191323916 719.1464723361709 294.37782065450125L719.1464723361709 294.37782065450125L712.8305053990517 294.24308002650935Q710.4051740951978 294.1251819770165 707.8619447418513 294.1925522910124Q705.3187153885045 294.24308002650935 702.8933840846508 294.49571870399416L702.8933840846508 294.49571870399416Q695.4994921235965 294.7315148029799 688.1056001625421 295.59048630642815Q680.6948656229889 296.4326152313773 673.4188717114276 298.3695117587606L673.4188717114276 298.3695117587606Q666.0249797503733 300.3064082861439 658.8163561528078 303.7759794569347Q651.5908899767434 307.22870804922655 645.6623023451008 312.3151667559199Q639.7168721349592 317.4184680411123 636.1967732286713 324.2060271762032Q632.6766743223835 330.99358631129394 632.6766743223835 339.60014392427513L632.6766743223835 339.60014392427513Q632.6766743223835 348.08880348776347 636.3820415921601 355.3142696638279Q640.0705662834379 362.5228932613933 646.3191629065612 367.7946203315755Q652.5677595296845 373.06634740175775 660.2142901682236 375.98011348208206ZM678.7579690956057 379.1296756613922L678.7579690956057 379.1296756613922Q686.033963007167 379.1296756613922 693.798391695199 377.4454178114937L693.798391695199 377.4454178114937Q690.7667275653818 372.5947552037861 688.1056001625421 367.67672228208266Q685.4276301812037 362.7586893603791 682.2780680018935 358.1606654301563L682.2780680018935 358.1606654301563Q678.6400710461128 363.0113280378639 675.4231385528068 368.0977867445572Q672.2062060595007 373.2010880297496 668.7029497317118 378.16964868695004L668.7029497317118 378.16964868695004Q671.1282810355657 378.65808346342067 673.6715103889123 378.89387956240637Q676.214739742259 379.1296756613922 678.7579690956057 379.1296756613922ZM757.699134520347 390.78473998268964L757.699134520347 390.78473998268964Q751.4000101617268 390.78473998268964 748.2504479824166 388.10677000135104Q745.1008858031065 385.4456425985114 745.1008858031065 381.31921086626016L745.1008858031065 381.31921086626016Q745.1008858031065 376.83908498553023 748.6715124448912 371.5505153368491Q752.2421390866758 366.2787882666669 758.9118001722737 361.6807643364441L758.9118001722737 361.6807643364441L775.282786473287 350.76677346910196Q773.9522227718672 347.9709054382705 772.6216590704474 345.0571393579462Q771.2910953690276 342.1433732776218 771.2910953690276 339.1117091478046L771.2910953690276 339.1117091478046Q771.2910953690276 337.2927106699142 771.7795301454981 335.7263508695087L771.7795301454981 335.7263508695087Q773.5985286233885 329.89881870885995 778.1460248181144 326.98505262853564Q782.6935210128403 324.0881291267102 787.0557488440774 323.95338849871837L787.0557488440774 323.95338849871837Q792.0243095012778 323.95338849871837 794.4496408051315 326.631358480057Q796.8749721089854 329.2924858828965 796.8749721089854 333.0483808881701L796.8749721089854 333.0483808881701Q796.8749721089854 336.82111847194267 794.3822704911355 340.9980779396909Q791.906411451785 345.17503740743905 786.9378507945843 347.9709054382705L786.9378507945843 347.9709054382705Q784.1419827637529 349.5541078171751 782.996687425822 350.3962367421243Q781.8345495093921 351.2383656670736 780.9924205844428 351.7268004435441L780.9924205844428 351.7268004435441Q783.4177518882965 355.85323217579537 784.6304175402234 359.86176585855367Q785.8430831921504 363.8534569628131 785.8430831921504 367.49145391859383L785.8430831921504 367.49145391859383Q785.8430831921504 374.0432169546988 782.3903545998586 379.314944024881Q778.9207834290677 384.58667109506325 772.6216590704474 387.6857055388764Q766.3225347118272 390.78473998268964 757.699134520347 390.78473998268964ZM778.9207834290677 348.2067015372563L778.9207834290677 348.2067015372563Q779.7797549325159 347.60036871129284 780.739781906958 346.75823978634367Q781.716651459899 345.9161108613944 783.6535479872824 344.70344520946753L783.6535479872824 344.70344520946753Q787.2915449430631 342.27811390561374 789.1105434209534 338.99381109831165Q790.9295418988437 335.7263508695087 790.9295418988437 332.81258478918426L790.9295418988437 332.81258478918426Q790.9295418988437 330.0167167583528 789.4137098339351 328.26508859445846Q787.8978777690264 326.513460430564 784.9841116887022 326.513460430564L784.9841116887022 326.513460430564Q781.952447558885 326.513460430564 779.0555240570594 328.56825500744014Q776.1417579767352 330.6230495843163 774.8111942753154 334.5136852175817L774.8111942753154 334.5136852175817Q774.4406575483378 335.7263508695087 774.4406575483378 336.9390165214355L774.4406575483378 336.9390165214355Q774.4406575483378 339.60014392427513 775.8385915637535 342.4465396906036Q777.2365255791691 345.3097780354309 778.9207834290677 348.2067015372563ZM757.699134520347 388.83100087680737L757.699134520347 388.83100087680737Q763.6445647304885 388.83100087680737 768.6804957016849 385.4961703340084Q773.7164266728813 382.16133979120946 776.7986185381957 376.83908498553023Q779.8976529820087 371.49998760135213 779.8976529820087 365.4366593417177L779.8976529820087 365.4366593417177Q779.8976529820087 362.64079131088624 779.1734221065525 359.7270252305618Q778.449191231096 356.8301017287365 776.7480908026986 354.1521317473979L776.7480908026986 354.1521317473979Q775.7712212497576 354.6405665238684 772.8069274339363 356.22376890277303Q769.8257910396159 357.79012870317865 766.0698960343424 359.97966390804663Q762.3140010290687 362.1523565344156 759.1644388497585 364.5776878382694L759.1644388497585 364.5776878382694Q755.0380071175074 367.74409259607853 752.0737133016861 372.6452829392831Q749.0925769073657 377.5633158609867 749.0925769073657 381.8076456427308L749.0925769073657 381.8076456427308Q749.0925769073657 384.83930977254806 751.0968437487448 386.8435766139272Q753.1011105901242 388.83100087680737 757.699134520347 388.83100087680737ZM806.0878625479301 388.59520477782155L806.0878625479301 388.59520477782155Q798.323433859898 388.59520477782155 795.4770380935696 385.7993367469901Q792.6306423272412 383.02031129465763 792.6306423272412 379.6181104378628L792.6306423272412 379.6181104378628Q792.6306423272412 376.4685482585526 794.2138447061458 373.85794859120995Q795.7802045065513 371.2473489238673 797.3634068854559 370.7757567258958L797.3634068854559 370.7757567258958Q798.4581744878898 368.82201762001364 799.7213678753138 366.5314269441517Q801.0014038412365 364.22399368979075 802.0961714436706 362.03445848492277L802.0961714436706 362.03445848492277Q804.2688640700395 357.6722306536857 806.5762973244006 353.73106728492326Q808.8837305787614 349.7899039161608 811.612228295597 347.36457261230703Q814.3407260124324 344.93924130845323 817.3723901422496 344.93924130845323L817.3723901422496 344.93924130845323Q818.8208518931623 344.93924130845323 820.4040542720669 345.5455741344167L820.4040542720669 345.5455741344167Q821.9704140724724 346.26980500987304 821.9704140724724 346.99403588532937L821.9704140724724 346.99403588532937Q821.9704140724724 347.4824706618 821.498821874501 347.7351093392847Q821.0103870980303 347.9709054382705 820.4040542720669 347.85300738877766L820.4040542720669 347.85300738877766Q818.2145190671989 347.2466745628142 816.3955205893086 349.0656730407045Q814.5765221114183 350.8846715185949 814.5765221114183 354.03423369790505L814.5765221114183 354.03423369790505Q814.5765221114183 354.52266847437556 814.6438924254143 355.06163098634306Q814.6944201609111 355.61743607680955 814.8291607889031 356.22376890277303L814.8291607889031 356.22376890277303Q815.5533916643593 359.12069240459834 816.3449928538117 362.89342998837094Q817.1197514647648 366.64932499364454 817.1197514647648 370.523118048411L817.1197514647648 370.523118048411Q817.1197514647648 371.98842237782264 817.001853415272 373.4368841287354Q816.8839553657791 374.88534587964807 816.3955205893086 376.23275215956687L816.3955205893086 376.23275215956687Q814.8291607889031 380.7128780402968 812.1006630720675 383.3234777076394Q809.3721653552319 385.93407737498205 805.4815297219665 387.1467430269089L805.4815297219665 387.1467430269089Q808.3952958022909 387.26464107640186 811.612228295597 386.5909379364424Q814.8291607889031 385.93407737498205 817.1197514647648 384.58667109506325L817.1197514647648 384.58667109506325Q821.1282851475233 382.2960804192013 824.2273195913364 378.287546736443Q827.3095114566505 374.2790130536846 829.7348427605044 369.86625748695064Q832.1601740643583 365.4366593417177 834.0970705917415 361.79866238593695L834.0970705917415 361.79866238593695Q834.2318112197335 361.31022760946644 834.8381440456968 361.31022760946644L834.8381440456968 361.31022760946644Q835.1918381941754 361.31022760946644 835.4444768716602 361.6133940224481Q835.6802729706461 361.9165604354298 835.4444768716602 362.28709716240746L835.4444768716602 362.28709716240746Q833.0191455678065 366.7672230431374 830.4590736359609 371.3147192378633Q827.9158442826141 375.8622154325892 824.766282103304 379.6854807518587Q821.6167199239939 383.50874607112826 817.2544920927568 385.93407737498205L817.2544920927568 385.93407737498205Q812.521727534542 388.59520477782155 806.0878625479301 388.59520477782155ZM801.1193018907294 386.5404102009454L801.1193018907294 386.5404102009454Q803.5446331945833 386.5404102009454 806.0878625479301 384.9572078220409Q808.6310919012766 383.3740054431363 809.7258595037107 380.34234131331914L809.7258595037107 380.34234131331914Q811.0564232051305 376.58644630804554 811.3595896181122 371.9210520638268Q811.6627560310939 367.255657819608 811.6627560310939 363.12922608735676Q811.6627560310939 359.0027943551055 811.7974966590858 356.8301017287365L811.7974966590858 356.8301017287365Q812.0332927580715 353.4279008719416 813.6164951369761 350.4636070561203Q815.1828549373816 347.4824706618 818.9387499426554 346.8761378358365L818.9387499426554 346.8761378358365Q818.0966210177061 346.387703059366 817.2544920927568 346.387703059366L817.2544920927568 346.387703059366Q815.1828549373816 346.387703059366 813.0101623110126 348.2067015372563Q810.8206271061446 350.02570001514664 809.7258595037107 351.4910043445583L809.7258595037107 351.4910043445583Q808.0247590753132 353.79843759891924 806.4583992749075 356.94799977822936Q804.8751968960031 360.0975619575395 802.9383003686199 363.61766086382727L802.9383003686199 363.61766086382727L799.3003034128391 370.1694238999323Q799.6708401398167 370.0346832719405 800.3950710152732 370.0346832719405L800.3950710152732 370.0346832719405Q802.3319675426563 370.0346832719405 802.870930054624 371.12945087437447Q803.4267351450904 372.22421847680846 803.1740964676056 372.7126532532791L803.1740964676056 372.7126532532791Q802.8204023191269 372.5947552037861 802.5172359061452 372.52738488979026Q802.2140694931635 372.4600145757943 801.9614308156787 372.4600145757943L801.9614308156787 372.4600145757943Q799.9066362388027 372.4600145757943 798.390804173894 374.16111500419174Q796.8749721089854 375.8622154325892 796.2686392830218 377.91701000946534L796.2686392830218 377.91701000946534Q796.0328431840361 378.7759815129135 795.8981025560441 379.5675827023658Q795.7802045065513 380.34234131331914 795.7802045065513 380.9486741392825L795.7802045065513 380.9486741392825Q795.7802045065513 383.8624402196069 797.3634068854559 385.19300392102673Q798.9297666858614 386.5404102009454 801.1193018907294 386.5404102009454ZM884.3047970972149 419.2823828029717L884.3047970972149 419.2823828029717Q878.1235707880875 419.2823828029717 872.4307792554306 417.27811596159256Q866.7211451442748 415.2738491202133 862.5947134120237 411.332685751451Q858.4851242582714 407.39152238268855 856.6661257803809 401.8166288995245L856.6661257803809 401.8166288995245Q852.4217959986369 401.328194123054 848.783799042856 399.87973237214135Q845.1458020870754 398.4144280427297 842.8888965682114 395.63540259039723Q840.6488336278466 392.8395345595658 840.6488336278466 388.4773067283287L840.6488336278466 388.4773067283287Q840.6488336278466 387.75307585287237 840.7162039418425 386.96147466342006Q840.7667316773394 386.16987347396775 840.9014723053314 385.3277445490186L840.9014723053314 385.3277445490186Q840.9014723053314 384.7214117230551 841.7436012302807 384.7214117230551L841.7436012302807 384.7214117230551Q842.7204707832217 384.7214117230551 842.7204707832217 385.3277445490186L842.7204707832217 385.3277445490186L842.5857301552297 387.3825391258947Q842.5857301552297 392.9574326090586 846.5942638379883 395.9890967388759Q850.6027975207465 399.0207608686932 856.1776910039104 399.62709369465654L856.1776910039104 399.62709369465654Q855.571358177947 396.96596629181704 855.571358177947 394.4227369384703L855.571358177947 394.4227369384703Q855.571358177947 390.9026380321825 856.8345515653708 389.7405001157525Q858.1145875312938 388.59520477782155 859.2093551337276 388.59520477782155L859.2093551337276 388.59520477782155Q860.6578168846403 388.59520477782155 860.6578168846403 389.319435653278L860.6578168846403 389.319435653278Q860.6578168846403 389.8078704297485 859.6977899101981 390.17840715672617L859.6977899101981 390.17840715672617Q858.3503836302795 390.6499993546977 857.8787914323078 391.86266500662464Q857.3903566558373 393.0753306585515 857.3903566558373 394.4227369384703L857.3903566558373 394.4227369384703Q857.3903566558373 395.87119868938305 857.626152754823 397.20176239080274Q857.8787914323078 398.53232609222255 858.1145875312938 399.87973237214135L858.1145875312938 399.87973237214135Q864.0600177414352 400.23342652062 869.5170131751062 398.53232609222255L869.5170131751062 398.53232609222255Q873.5087042793656 397.20176239080274 876.7930070866677 394.8943291364418Q880.0604673154706 392.60373846057996 882.7384372968094 389.5720743307627L882.7384372968094 389.5720743307627Q876.5403684091829 386.2877715234607 871.5718077519824 381.62237727924196Q866.603247094782 376.9569830350232 863.6894810144576 370.89365477538865Q860.7757149341334 364.8303265157542 860.7757149341334 357.79012870317865L860.7757149341334 357.79012870317865Q860.7757149341334 355.7353341263025 861.078881347115 353.73106728492326Q861.3820477600967 351.7268004435441 861.8704825365672 350.02570001514664L861.8704825365672 350.02570001514664Q857.3903566558373 344.70344520946753 857.3903566558373 336.56847979445786L857.3903566558373 336.56847979445786Q857.3903566558373 330.5051515348234 860.0514840586769 323.8354904492255Q862.7294540400154 317.1658293636275 868.1190791596906 310.86670500500725Q873.5087042793656 304.550738067888 881.4584013308864 299.4642793611946Q889.4080983824073 294.37782065450125 900.0694505722646 291.2114158966921Q910.7476453406208 288.06185371738195 923.9690694623238 287.8260576183962L923.9690694623238 287.8260576183962Q935.0009583791588 287.57341894091144 945.0559777430527 290.5545553352317Q955.1278396854456 293.518849151053 962.8922683734773 299.34638131170175Q970.6566970615094 305.1570708938515 974.9010268432536 313.78047108533156Q979.1453566249976 322.38702869831275 978.5390237990342 333.5368156646407L978.5390237990342 333.5368156646407Q977.7979503450789 345.5455741344167 972.5935935888925 356.15639858877705Q967.3723942542073 366.7672230431374 958.8332069552222 375.1379845571329Q950.277177077738 383.50874607112826 939.7337229373735 388.89837119080335Q929.1734262185101 394.28799631047843 917.7710005746975 395.7533006398901L917.7710005746975 395.7533006398901Q914.991975122365 403.7535254269078 909.6528777381867 408.97472476159305Q904.3137803540086 414.1790815177793 897.7114895824067 416.72231087112607Q891.0923562323056 419.2823828029717 884.3047970972149 419.2823828029717ZM918.3773334006609 393.5637654350221L918.3773334006609 393.5637654350221Q928.3312972935609 391.7447669571318 937.4768174185095 386.16987347396775Q946.6391801219571 380.59497999080384 953.8478037195226 372.4094868402973Q961.073269895587 364.22399368979075 965.2502293633353 354.33740011088673Q969.4440314095824 344.4508065319827 969.4440314095824 334.0252504411112L969.4440314095824 334.0252504411112Q969.4440314095824 322.8754634747834 965.8565621892986 314.62260001028085Q962.285935547514 306.3697365457783 956.1047092383866 300.98011142610324Q949.9066403507603 295.59048630642815 941.8558878282455 292.8619885895926Q933.7882927272318 290.1334908727571 924.8111983872731 290.1334908727571L924.8111983872731 290.1334908727571Q912.9203379669899 290.1334908727571 903.2863830655705 293.16515500257435Q893.6524281641513 296.1968191323916 886.241693624598 301.3506481530809Q878.8478016635439 306.50447717377017 873.8118706923475 312.80360153239053Q868.79278229965 319.1027258910108 866.2327103678043 325.60396119161885Q863.6894810144576 332.08835391372793 863.6894810144576 337.89904349587766L863.6894810144576 337.89904349587766Q863.6894810144576 341.18334630317975 864.6663505673988 344.4508065319827L864.6663505673988 344.4508065319827Q867.6980146972161 340.08857870074564 872.4813069909277 337.8485157603807Q877.2814418631382 335.6084528200157 882.8563353463022 335.6084528200157L882.8563353463022 335.6084528200157Q886.8480264505616 335.6084528200157 890.9239304473159 336.6863778439508Q894.9829918655711 337.7811454463848 898.8567849203376 340.2064767502386L898.8567849203376 340.2064767502386L899.2273216473153 337.66324739689185Q899.2273216473153 336.56847979445786 899.8336544732787 336.56847979445786L899.8336544732787 336.56847979445786Q900.3220892497494 336.56847979445786 900.3220892497494 337.545349347399L900.3220892497494 337.545349347399Q900.3220892497494 339.24644977579646 899.9515525227717 340.93070762569494L899.9515525227717 340.93070762569494Q903.5895494785524 343.2381408800559 906.8570097073554 346.75823978634367L906.8570097073554 346.75823978634367Q910.0234144651644 340.6949115267091 913.5266707929533 334.69895358107055Q917.046769699241 328.6861530569331 921.1732014314924 322.9933615242762L921.1732014314924 322.9933615242762Q928.8197320700314 312.5678054334047 935.9609853536009 306.9760693717418Q943.1190812156693 301.4011758885779 949.4350481527887 301.4011758885779L949.4350481527887 301.4011758885779Q951.3719446801719 301.4011758885779 952.9383044805774 301.8896106650484L952.9383044805774 301.8896106650484Q953.308841207555 302.0075087145413 953.308841207555 302.4959434910119L953.308841207555 302.4959434910119Q953.308841207555 303.2201743664682 952.5846103320988 303.10227631697535L952.5846103320988 303.10227631697535Q952.0961755556283 302.86648021798953 951.5572130436607 302.86648021798953Q951.0014079531942 302.86648021798953 950.3950751272308 302.86648021798953L950.3950751272308 302.86648021798953Q946.1507453454866 302.86648021798953 941.4179807872719 306.80764358675196Q936.7020588075562 310.7488069555144 931.6661278363598 317.721634454094Q926.6301968651634 324.6944619526737 921.594265893967 333.7894543421254Q916.5583349227705 342.8844467315771 911.8424129430549 353.3100028224486L911.8424129430549 353.3100028224486Q915.7162059978212 359.7270252305618 917.9057412026892 367.13775977011517Q920.0784338290583 374.5316517311694 920.0784338290583 381.31921086626016L920.0784338290583 381.31921086626016Q920.0784338290583 384.35087499607744 919.7247396805795 387.4499094398907Q919.3542029536019 390.53210130520483 918.3773334006609 393.5637654350221ZM880.6668001414342 355.12900130033904L880.6668001414342 355.12900130033904Q885.8879994761195 355.12900130033904 891.0923562323056 351.9794391210289Q896.3135555669909 348.8130343632198 898.250452094374 342.51391000459944L898.250452094374 342.51391000459944Q891.9513277357538 338.8759130488188 884.7932318736854 338.8759130488188L884.7932318736854 338.8759130488188Q879.2183383905216 338.8759130488188 874.3676757828138 341.41914240216545Q869.5170131751062 343.9623717555122 866.8390431937677 348.94777499121165L866.8390431937677 348.94777499121165Q868.9106803491428 351.7268004435441 872.3634089414346 353.4279008719416Q875.8161375337266 355.12900130033904 880.6668001414342 355.12900130033904ZM884.186899047722 387.8709739023652L884.186899047722 387.8709739023652Q886.241693624598 385.3277445490186 888.0101643669915 382.5318765181871Q889.7617925308858 379.73600848735566 891.3449949097904 376.9569830350232L891.3449949097904 376.9569830350232Q895.3366860140499 369.79888717295466 898.8567849203376 362.64079131088624Q902.3768838266254 355.4826954488177 905.8969827329132 348.45934021474113L905.8969827329132 348.45934021474113Q904.4316784035015 346.75823978634367 902.7979482891 345.47820382042084Q901.1642181746985 344.2150104329969 899.463117746301 343.1202428305629L899.463117746301 343.1202428305629Q897.2904251199321 350.1604406431385 891.766059372265 353.73106728492326Q886.241693624598 357.301693926708 880.1783653649637 357.301693926708L880.1783653649637 357.301693926708Q875.4624433852479 357.301693926708 871.7570761154712 356.22376890277303Q868.0517088456946 355.12900130033904 865.2726833933622 353.19210477295576L865.2726833933622 353.19210477295576Q864.7842486168917 355.12900130033904 864.5484525179057 357.55433260419284L864.5484525179057 357.55433260419284Q864.0600177414352 364.22399368979075 866.535876780786 369.91678522244763Q869.0285783986357 375.6264193336034 873.6939726428544 380.1739155283293Q878.3593668870732 384.7214117230551 884.186899047722 387.8709739023652ZM909.7707757876798 394.4227369384703L909.7707757876798 394.4227369384703Q911.4718762160772 394.4227369384703 913.1729766444747 394.23746857498145Q914.874077072872 394.0522002114926 916.4404368732777 393.93430216199977L916.4404368732777 393.93430216199977Q917.2994083767259 391.1384341311683 917.7710005746975 387.9888719518582Q918.259435351168 384.83930977254806 918.259435351168 381.31921086626016L918.259435351168 381.31921086626016Q918.259435351168 375.1379845571329 916.3225388237848 368.283055108046Q914.3856422964014 361.4281256589593 910.8655433901137 355.36479739932474L910.8655433901137 355.36479739932474L909.2823410112093 359.0027943551055Q907.227546434333 363.8534569628131 904.6169467669903 369.495720759973Q902.0063470996478 375.1379845571329 898.553618507356 380.59497999080384Q895.1008899150639 386.0519754244749 890.2502273073563 390.53210130520483L890.2502273073563 390.53210130520483Q899.8336544732787 394.4227369384703 909.7707757876798 394.4227369384703ZM884.6753338241925 416.48651477214025L884.6753338241925 416.48651477214025Q890.9744581828128 416.48651477214025 897.0377864424473 414.2969795672723Q903.1011147020816 412.1242869409032 908.0696753592823 407.5767907461774Q913.0550785949816 403.02929455145147 915.7162059978212 395.9890967388759L915.7162059978212 395.9890967388759Q912.3140051410263 396.35963346585356 908.6760081852457 396.35963346585356L908.6760081852457 396.35963346585356Q903.7074475280452 396.10699478836875 898.553618507356 395.0795974999306Q893.3997894866667 394.0522002114926 888.431228829466 392.11530368410945L888.431228829466 392.11530368410945Q884.4226951467077 395.5006619624053 879.4036067540104 397.92599326625907Q874.3676757828138 400.35132457011287 867.9338107962018 401.328194123054L867.9338107962018 401.328194123054Q865.7611181698327 401.69873085003167 863.5042126509687 401.8671566350215Q861.2641497106039 402.05242499851033 858.83881840675 401.9345269490175L858.83881840675 401.9345269490175Q860.7757149341334 406.54939345773926 864.7168783028957 409.81685368654223Q868.658041671658 413.0843139153453 873.8792410063432 414.7854143437428Q879.1004403410285 416.48651477214025 884.6753338241925 416.48651477214025ZM984.7202501081616 388.59520477782155L984.7202501081616 388.59520477782155Q979.4990507734764 388.59520477782155 977.3263581471073 385.0245781360369Q975.1368229422393 381.43710891575313 975.1368229422393 376.83908498553023L975.1368229422393 376.83908498553023Q975.1368229422393 374.0432169546988 975.7431557682027 371.3820895518593Q976.3494885941662 368.7041195705207 977.1916175191153 366.39668631615973L977.1916175191153 366.39668631615973Q978.5390237990342 363.12922608735676 981.014882838385 359.42385881758014Q983.5075844562347 355.7353341263025 987.0276833625225 353.0573641449639Q990.5309396903114 350.3962367421243 994.6573714225625 350.3962367421243L994.6573714225625 350.3962367421243Q998.0595722793574 350.3962367421243 999.3901359807772 352.2826055340106Q1000.720699682197 354.1521317473979 1000.720699682197 356.94799977822936L1000.720699682197 356.94799977822936Q1000.720699682197 357.4364345546999 1000.720699682197 357.8574990171745Q1000.720699682197 358.27856347964916 1000.6028016327042 358.88489630561264L1000.6028016327042 358.88489630561264Q1000.2322649057265 362.1523565344156 998.0595722793574 365.6724554407034Q995.8700370744895 369.1925543469912 992.6025768456863 371.5505153368491Q989.3182740383844 373.9253189052059 985.5623790331109 373.9253189052059L985.5623790331109 373.9253189052059Q983.3896864067418 373.9253189052059 981.6885859783443 372.7126532532791L981.6885859783443 372.7126532532791Q980.5938183759105 376.83908498553023 980.5938183759105 380.2244432638262L980.5938183759105 380.2244432638262Q980.5938183759105 383.02031129465763 981.6212156643484 384.83930977254806Q982.6486129527865 386.6583082504384 984.8381481576545 386.6583082504384L984.8381481576545 386.6583082504384Q987.3813775110012 386.6583082504384 990.968846731285 384.4182453100734Q994.5394733730697 382.16133979120946 998.7164328408179 376.7043443575384Q1002.910234887065 371.2473489238673 1007.2724627183021 361.79866238593695L1007.2724627183021 361.79866238593695Q1007.2724627183021 361.6807643364441 1007.5082588172878 361.6807643364441L1007.5082588172878 361.6807643364441Q1007.8787955442655 361.6807643364441 1008.2998600067402 361.9839307494258Q1008.7209244692148 362.28709716240746 1008.4851283702291 362.5228932613933L1008.4851283702291 362.5228932613933Q1002.5396981600874 375.98011348208206 995.9374073884854 382.2960804192013Q989.3182740383844 388.59520477782155 984.7202501081616 388.59520477782155ZM984.9560462071473 371.98842237782264L984.9560462071473 371.98842237782264Q987.6340161884858 371.98842237782264 990.1772455418326 369.9841555364435Q992.7204748951793 367.97988869506435 994.7752694720554 364.8808542512512Q996.8469066274305 361.79866238593695 998.0595722793574 358.6491002066268L998.0595722793574 358.6491002066268Q998.548007055828 357.301693926708 998.548007055828 355.61743607680955L998.548007055828 355.61743607680955Q998.548007055828 354.03423369790505 997.9922019653615 352.8889383599741Q997.4532394533938 351.7268004435441 996.1226757519743 351.7268004435441L996.1226757519743 351.7268004435441Q993.9331405471061 351.7268004435441 991.3899111937595 354.4552981603796Q988.8466818404128 357.1837958772152 986.6571466355448 360.8891631469918Q984.4676114306768 364.5776878382694 983.3896864067418 367.6093519680867L983.3896864067418 367.6093519680867Q983.0191496797642 368.46832347153486 982.7159832667825 369.37782271048Q982.4128168538006 370.2873219494253 982.1770207548149 371.2473489238673L982.1770207548149 371.2473489238673Q983.6254825057275 371.98842237782264 984.9560462071473 371.98842237782264ZM1011.2809964010604 388.59520477782155L1011.2809964010604 388.59520477782155Q1003.5165677130284 388.59520477782155 1000.6701719467 385.7993367469901Q997.8069336018726 383.02031129465763 997.8069336018726 379.6181104378628L997.8069336018726 379.6181104378628Q997.8069336018726 376.4685482585526 999.3901359807772 373.85794859120995Q1000.9733383596819 371.2473489238673 1002.5396981600874 370.7757567258958L1002.5396981600874 370.7757567258958Q1003.6344657625212 368.82201762001364 1004.9145017284442 366.5314269441517Q1006.177695115868 364.22399368979075 1007.2724627183021 362.03445848492277L1007.2724627183021 362.03445848492277Q1009.4619979231701 357.6722306536857 1011.752588599032 353.73106728492326Q1014.0600218533929 349.7899039161608 1016.7885195702285 347.36457261230703Q1019.5170172870638 344.93924130845323 1022.5486814168811 344.93924130845323L1022.5486814168811 344.93924130845323Q1024.0139857462927 344.93924130845323 1025.5803455466985 345.5455741344167L1025.5803455466985 345.5455741344167Q1027.1635479256029 346.26980500987304 1027.1635479256029 346.99403588532937L1027.1635479256029 346.99403588532937Q1027.1635479256029 347.4824706618 1026.6751131491324 347.7351093392847Q1026.1866783726618 347.9709054382705 1025.5803455466985 347.85300738877766L1025.5803455466985 347.85300738877766Q1023.4076529203295 347.2466745628142 1021.5886544424392 349.0656730407045Q1019.7696559645486 350.8846715185949 1019.7696559645486 354.03423369790505L1019.7696559645486 354.03423369790505Q1019.7696559645486 354.52266847437556 1019.8201837000457 355.06163098634306Q1019.8875540140415 355.61743607680955 1020.0054520635346 356.22376890277303L1020.0054520635346 356.22376890277303Q1020.7296829389908 359.12069240459834 1021.521284128443 362.89342998837094Q1022.3128853178954 366.64932499364454 1022.3128853178954 370.523118048411L1022.3128853178954 370.523118048411Q1022.3128853178954 371.98842237782264 1022.1949872684023 373.4368841287354Q1022.0602466404106 374.88534587964807 1021.5886544424392 376.23275215956687L1021.5886544424392 376.23275215956687Q1020.0054520635346 380.7128780402968 1017.276954346699 383.3234777076394Q1014.5484566298634 385.93407737498205 1010.674663575097 387.1467430269089L1010.674663575097 387.1467430269089Q1013.5715870769224 387.26464107640186 1016.7885195702285 386.5909379364424Q1020.0054520635346 385.93407737498205 1022.3128853178954 384.58667109506325L1022.3128853178954 384.58667109506325Q1026.3045764221547 382.2960804192013 1029.403610865968 378.287546736443Q1032.5026453097812 374.2790130536846 1034.927976613635 369.86625748695064Q1037.3533079174886 365.4366593417177 1039.290204444872 361.79866238593695L1039.290204444872 361.79866238593695Q1039.4081024943648 361.31022760946644 1040.0144353203282 361.31022760946644L1040.0144353203282 361.31022760946644Q1040.3849720473058 361.31022760946644 1040.6207681462915 361.6133940224481Q1040.8565642452777 361.9165604354298 1040.6207681462915 362.28709716240746L1040.6207681462915 362.28709716240746Q1038.195436842438 366.7672230431374 1035.6522074890913 371.3147192378633Q1033.1089781357446 375.8622154325892 1029.9425733779353 379.6854807518587Q1026.7930111986252 383.50874607112826 1022.4307833673882 385.93407737498205L1022.4307833673882 385.93407737498205Q1017.6980188091735 388.59520477782155 1011.2809964010604 388.59520477782155ZM1006.2955931653611 386.5404102009454L1006.2955931653611 386.5404102009454Q1008.7209244692148 386.5404102009454 1011.2809964010604 384.9572078220409Q1013.8242257544072 383.3740054431363 1014.918993356841 380.34234131331914L1014.918993356841 380.34234131331914Q1016.2495570582608 376.58644630804554 1016.5527234712425 371.9210520638268Q1016.8558898842244 367.255657819608 1016.8558898842244 363.12922608735676Q1016.8558898842244 359.0027943551055 1016.9737879337173 356.8301017287365L1016.9737879337173 356.8301017287365Q1017.209584032703 353.4279008719416 1018.7927864116076 350.4636070561203Q1020.3759887905122 347.4824706618 1024.1318837957856 346.8761378358365L1024.1318837957856 346.8761378358365Q1023.2729122923375 346.387703059366 1022.4307833673882 346.387703059366L1022.4307833673882 346.387703059366Q1020.3759887905122 346.387703059366 1018.186453585644 348.2067015372563Q1015.996918380776 350.02570001514664 1014.918993356841 351.4910043445583L1014.918993356841 351.4910043445583Q1013.2178929284436 353.79843759891924 1011.634690549539 356.94799977822936Q1010.0683307491335 360.0975619575395 1008.1145916432514 363.61766086382727L1008.1145916432514 363.61766086382727L1004.4765946874705 370.1694238999323Q1004.8471314144482 370.0346832719405 1005.5713622899046 370.0346832719405L1005.5713622899046 370.0346832719405Q1007.5082588172878 370.0346832719405 1008.0640639077543 371.12945087437447Q1008.6030264197219 372.22421847680846 1008.367230320736 372.7126532532791L1008.367230320736 372.7126532532791Q1007.9966935937583 372.5947552037861 1007.6935271807766 372.52738488979026Q1007.390360767795 372.4600145757943 1007.1545646688093 372.4600145757943L1007.1545646688093 372.4600145757943Q1005.0829275134341 372.4600145757943 1003.5670954485255 374.16111500419174Q1002.0512633836169 375.8622154325892 1001.4449305576535 377.91701000946534L1001.4449305576535 377.91701000946534Q1001.2091344586676 378.7759815129135 1001.0912364091747 379.5675827023658Q1000.9733383596819 380.34234131331914 1000.9733383596819 380.9486741392825L1000.9733383596819 380.9486741392825Q1000.9733383596819 383.8624402196069 1002.5396981600874 385.19300392102673Q1004.122900538992 386.5404102009454 1006.2955931653611 386.5404102009454ZM1057.4801892237756 342.51391000459944L1057.4801892237756 342.51391000459944Q1055.779088795378 342.51391000459944 1054.6337934574467 341.3686146666686Q1053.4716555410168 340.2064767502386 1053.4716555410168 338.640116949833L1053.4716555410168 338.640116949833Q1053.4716555410168 336.56847979445786 1054.8695895564329 335.1200180435452Q1056.2675235718484 333.65471371413355 1058.2044200992318 333.65471371413355L1058.2044200992318 333.65471371413355Q1059.905520527629 333.65471371413355 1061.1181861795562 334.8673793660604Q1062.330851831483 336.08004501798735 1062.330851831483 337.89904349587766L1062.330851831483 337.89904349587766Q1062.330851831483 339.85278260175994 1060.8655475020714 341.18334630317975Q1059.4170857511585 342.51391000459944 1057.4801892237756 342.51391000459944ZM1044.1408670525798 387.9888719518582L1044.1408670525798 387.9888719518582Q1041.9513318477116 387.9888719518582 1040.6881384602875 386.3551418374566Q1039.4081024943648 384.7214117230551 1039.4081024943648 382.0434417417166L1039.4081024943648 382.0434417417166Q1039.4081024943648 378.65808346342067 1040.8060365097808 374.7674478301552Q1042.2039705251964 370.89365477538865 1044.0734967385833 366.9524914066262Q1045.9598655304699 363.0113280378639 1047.4083272813828 359.491229131576L1047.4083272813828 359.491229131576Q1048.0146601073461 357.79012870317865 1048.5030948838166 356.45956500175885Q1048.9915296602871 355.12900130033904 1048.9915296602871 354.27002979689087L1048.9915296602871 354.27002979689087Q1048.9915296602871 353.0573641449639 1047.8967620578528 353.0573641449639L1047.8967620578528 353.0573641449639Q1046.4483003069404 353.0573641449639 1044.9829959775288 354.87636262285423Q1043.534534226616 356.69536110074455 1042.372396310186 358.9522666196085Q1041.2271009722554 361.1923295599735 1040.5028700967987 362.5228932613933L1040.5028700967987 362.5228932613933Q1038.6838716189086 366.04299216768106 1036.5617067280364 369.79888717295466Q1034.4395418371646 373.55478217822827 1032.2500066322964 376.7043443575384L1032.2500066322964 376.7043443575384Q1032.2500066322964 376.83908498553023 1032.0142105333107 376.83908498553023L1032.0142105333107 376.83908498553023Q1031.7615718558259 376.83908498553023 1031.4078777073473 376.4685482585526Q1031.0373409803692 376.0980115315749 1031.1552390298625 375.98011348208206L1031.1552390298625 375.98011348208206Q1033.4626722842231 372.7126532532791 1035.4669391256025 369.00728598350247Q1037.4712059669814 365.31876129222474 1039.172306395379 361.9165604354298L1039.172306395379 361.9165604354298Q1040.3849720473058 359.37333108208315 1041.9008041122147 356.6448333652477Q1043.416636177123 353.9163356484121 1045.4714307539994 352.0299668565259Q1047.5262253308756 350.1604406431385 1050.2041953122139 350.1604406431385L1050.2041953122139 350.1604406431385Q1051.416860964141 350.1604406431385 1052.9832207645463 350.76677346910196L1052.9832207645463 350.76677346910196Q1054.8022192424369 351.4910043445583 1054.8022192424369 353.9163356484121L1054.8022192424369 353.9163356484121Q1054.8022192424369 355.12900130033904 1054.3811547799623 356.76273141474053Q1053.9600903174874 358.396461529142 1053.2358594420311 360.46809868451714L1053.2358594420311 360.46809868451714Q1051.6526570631268 364.5776878382694 1049.7831308497393 368.77148988451665Q1047.8967620578528 372.9484493522648 1046.3135596789484 377.192779134009L1046.3135596789484 377.192779134009Q1045.1008940270217 380.477081941311 1045.1008940270217 383.02031129465763L1045.1008940270217 383.02031129465763Q1045.1008940270217 385.7993367469901 1046.9198925049122 385.7993367469901L1046.9198925049122 385.7993367469901Q1048.6209929333095 385.7993367469901 1052.1410918395973 382.76767261717293L1052.1410918395973 382.76767261717293Q1055.661190745885 379.6181104378628 1058.6928548757023 374.8348181441511Q1061.7245190055196 370.0346832719405 1065.9688487872636 361.9165604354298L1065.9688487872636 361.9165604354298Q1066.0867468367564 361.6807643364441 1066.457283563734 361.6807643364441L1066.457283563734 361.6807643364441Q1066.6930796627198 361.6807643364441 1066.996246075702 361.9839307494258Q1067.2994124886836 362.28709716240746 1067.1815144391908 362.5228932613933L1067.1815144391908 362.5228932613933Q1060.7476494525786 375.0200865076399 1055.661190745885 381.504479229749Q1050.5578894606929 387.9888719518582 1044.1408670525798 387.9888719518582ZM1050.086297262721 435.8891652029706L1050.086297262721 435.8891652029706Q1048.132558156839 435.8891652029706 1046.9872628189078 434.6091292370478Q1045.841967480977 433.34593584962386 1045.841967480977 430.8027064962772L1045.841967480977 430.8027064962772Q1045.841967480977 428.7310693409021 1046.751466719922 425.9520438885696Q1047.660965958867 423.15617585773816 1049.5978624862505 419.6360769514504L1049.5978624862505 419.6360769514504Q1052.0231937901044 415.2738491202133 1055.2906540189074 410.6589826114915Q1058.5749568262095 406.06095868126874 1062.21295378199 401.9345269490175Q1065.8509507377707 397.8080952167662 1069.0510406525777 394.77643108694895Q1072.2679731458838 391.7447669571318 1074.457508350752 390.6499993546977L1074.457508350752 390.6499993546977Q1074.9459431272226 389.43733370277084 1075.8554423661676 386.77620629993123Q1076.7649416051127 384.1150788970916 1077.792338893551 381.13394250277133Q1078.819736181989 378.16964868695004 1079.5439670574451 376.0980115315749Q1080.2681979329018 374.0432169546988 1080.2681979329018 374.0432169546988L1080.2681979329018 374.0432169546988Q1078.5839400830032 377.07488108451605 1076.461775192131 380.29181357782215Q1074.3396103012592 383.50874607112826 1071.9142789974053 385.7488090114932Q1069.4889476935514 387.9888719518582 1066.6930796627198 387.9888719518582L1066.6930796627198 387.9888719518582Q1062.5666479304687 387.9888719518582 1061.0508158655603 385.63091096200026Q1059.5349838006514 383.25610739364345 1059.5349838006514 379.9886471648405L1059.5349838006514 379.9886471648405Q1059.5349838006514 376.4685482585526 1060.7476494525786 372.5947552037861Q1061.9603151045053 368.7041195705207 1063.0550827069392 366.39668631615973L1063.0550827069392 366.39668631615973Q1066.928875761706 358.27856347964916 1073.9017032602856 353.9668633839091Q1080.8745307588651 349.672005866668 1088.2852652984184 349.672005866668L1088.2852652984184 349.672005866668Q1089.2452922728608 349.672005866668 1090.2726895612986 349.672005866668Q1091.3169294282357 349.672005866668 1092.2769564026776 349.9078019656538L1092.2769564026776 349.9078019656538Q1094.7022877065315 350.27833869263145 1094.7022877065315 350.51413479161727L1094.7022877065315 350.51413479161727Q1094.7022877065315 350.76677346910196 1092.9506595426374 351.0025695680878Q1091.1821888002437 351.2383656670736 1090.3400598752946 351.2383656670736L1090.3400598752946 351.2383656670736Q1084.394629665153 351.2383656670736 1079.7292354209344 354.4047704248827Q1075.0638411767154 357.55433260419284 1071.7795383694133 362.4049952119004Q1068.5120781406104 367.255657819608 1066.7604499767158 372.29158879080444Q1064.9919792343226 377.31067718350187 1064.9919792343226 380.9486741392825L1064.9919792343226 380.9486741392825Q1064.9919792343226 383.25610739364345 1065.7835804237748 384.7214117230551Q1066.575181613227 386.16987347396775 1068.1415414136327 386.16987347396775L1068.1415414136327 386.16987347396775Q1069.8426418420304 386.16987347396775 1072.0321770468981 383.8624402196069Q1074.2048696732672 381.555006965246 1076.2765068286421 378.220176422447Q1078.3313014055184 374.88534587964807 1080.032401833916 371.68525596484096Q1081.7335022623133 368.46832347153486 1082.5756311872624 366.7672230431374L1082.5756311872624 366.7672230431374L1087.7968305219479 355.85323217579537Q1089.8516250988241 355.36479739932474 1092.3948544521704 354.6405665238684Q1094.9549263840163 353.9163356484121 1096.8918229113997 353.0573641449639L1096.8918229113997 353.0573641449639Q1094.9549263840163 355.2468993498319 1092.6474931296552 359.0701646691015Q1090.3400598752946 362.89342998837094 1088.638959446897 366.64932499364454L1088.638959446897 366.64932499364454Q1086.8199609690068 370.89365477538865 1085.5567675815828 374.3463833676806Q1084.27673161566 377.7991119599724 1083.1314362777289 381.08341476727446Q1081.969298361299 384.35087499607744 1080.5208366103866 388.35940867883585L1080.5208366103866 388.35940867883585Q1086.3315261925363 384.7214117230551 1089.8010973633272 381.13394250277133Q1093.253825955619 377.5633158609867 1095.8644256229613 373.31898607924245Q1098.458182711805 369.07465629749834 1101.3719487921294 363.61766086382727L1101.3719487921294 363.61766086382727Q1101.6245874696142 363.2471241368496 1101.9782816180928 363.2471241368496L1101.9782816180928 363.2471241368496Q1102.3488183450704 363.2471241368496 1102.5846144440561 363.5502905498314Q1102.8372531215414 363.8534569628131 1102.5846144440561 364.3418917392836L1102.5846144440561 364.3418917392836Q1099.3171542152536 370.40521999891814 1096.4707584489252 374.88534587964807Q1093.6075201040976 379.382314338877 1089.8010973633272 383.02031129465763Q1085.9778320440573 386.6583082504384 1079.79660573493 390.414203255712L1079.79660573493 390.414203255712Q1077.724968579555 395.87119868938305 1074.9459431272226 402.6587578244738Q1072.150075096391 409.4463169595647 1068.933142603085 415.94755226017276Q1065.7162101097788 422.43194498228183 1062.21295378199 427.2826075899894L1062.21295378199 427.2826075899894Q1059.1812896521728 431.52693737173365 1055.8464591093739 433.69962999810264Q1052.511628566575 435.8891652029706 1050.086297262721 435.8891652029706ZM1050.4399914112 434.18806477457315L1050.4399914112 434.18806477457315Q1051.9052957406116 434.18806477457315 1054.1453586809766 432.01537214820416Q1056.3854216213413 429.82583694333607 1059.1812896521728 424.9751743356285L1059.1812896521728 424.9751743356285Q1061.4718803280348 420.84874260337733 1063.8466838963918 415.94755226017276Q1066.2046448862493 411.0295193384692 1068.2762820416247 406.29675478025456Q1070.331076618501 401.5639902220398 1071.7795383694133 398.06073389425103Q1073.2448426988253 394.54063498796324 1073.7332774752958 393.3279693360363L1073.7332774752958 393.3279693360363Q1071.17320554345 394.77643108694895 1068.1415414136327 397.8080952167662Q1065.1098772838154 400.8397593465835 1061.9603151045053 404.73039497984894Q1058.8107529251952 408.6041880346154 1056.0822552083596 412.8485178163595Q1053.353757491524 417.09284759810373 1051.416860964141 420.9666406528702L1051.416860964141 420.9666406528702Q1049.8336585852362 423.99830478268746 1049.176798023776 426.5583767145331Q1048.5030948838166 429.10160606787974 1048.5030948838166 430.8027064962772L1048.5030948838166 430.8027064962772Q1048.5030948838166 434.18806477457315 1050.4399914112 434.18806477457315ZM1123.4525692042985 387.9888719518582L1123.4525692042985 387.9888719518582Q1118.3492679191058 387.9888719518582 1118.3492679191058 382.2960804192013L1118.3492679191058 382.2960804192013Q1118.3492679191058 380.1065452143333 1119.2082394225545 377.07488108451605Q1120.0503683475035 374.0432169546988 1121.8693668253936 370.40521999891814L1121.8693668253936 370.40521999891814Q1122.846236378335 368.350425422042 1124.4799664927364 365.48718707721457Q1126.113696607138 362.64079131088624 1127.4442603085577 359.86176585855367Q1128.7748240099777 357.0658978277222 1128.7748240099777 355.4826954488177L1128.7748240099777 355.4826954488177Q1128.7748240099777 353.9163356484121 1127.090566160079 353.9163356484121L1127.090566160079 353.9163356484121Q1124.783132905718 353.9163356484121 1122.2904312878682 356.39219468776287Q1119.8145722485178 358.88489630561264 1117.389240944664 362.7586893603791Q1114.96390964081 366.64932499364454 1112.7743744359423 370.89365477538865Q1110.584839231074 375.1379845571329 1109.0184794306683 378.8265092484105Q1107.435277051764 382.5318765181871 1106.7110461763077 384.4687730455704L1106.7110461763077 384.4687730455704Q1105.9868153008515 386.2877715234607 1104.6562515994315 386.77620629993123Q1103.3088453195128 387.26464107640186 1101.793013254604 387.26464107640186Q1100.2771811896955 387.26464107640186 1098.946617488276 387.75307585287237L1098.946617488276 387.75307585287237Q1100.6477179166732 383.8624402196069 1101.742485519107 381.43710891575313Q1102.8372531215414 379.01177761189933 1104.049918773468 376.53591857254855Q1105.2625844253948 374.0432169546988 1106.9468422752934 369.79888717295466L1106.9468422752934 369.79888717295466Q1107.9237118282344 367.6093519680867 1109.1363774801616 364.76295620175824Q1110.3490431320884 361.9165604354298 1111.2585423710334 359.1880627185943Q1112.1680416099784 356.45956500175885 1112.1680416099784 354.87636262285423L1112.1680416099784 354.87636262285423Q1112.1680416099784 353.0573641449639 1110.9553759580517 353.0573641449639L1110.9553759580517 353.0573641449639Q1109.5069142071393 353.0573641449639 1108.0416098777273 354.87636262285423Q1106.5931481268149 356.69536110074455 1105.4310102103846 358.9522666196085Q1104.2857148724538 361.1923295599735 1103.5614839969976 362.5228932613933L1103.5614839969976 362.5228932613933Q1101.742485519107 366.04299216768106 1099.923487041217 369.428350445977Q1098.1044885633264 372.83055130277194 1095.7970553089654 375.98011348208206L1095.7970553089654 375.98011348208206L1095.6791572594725 375.98011348208206Q1095.3086205324948 375.98011348208206 1094.8875560700203 375.74431738309625Q1094.4664916075458 375.49167870561155 1094.5843896570386 375.3737806561186L1094.5843896570386 375.3737806561186Q1096.6391842339149 372.1063204273156 1098.525553025801 368.82201762001364Q1100.4119218176875 365.55455739121055 1101.9782816180928 362.28709716240746L1101.9782816180928 362.28709716240746Q1103.3088453195128 359.7270252305618 1104.8920476984172 356.8806294642334Q1106.475250077322 354.03423369790505 1108.5300446541978 352.09733717052177Q1110.584839231074 350.1604406431385 1113.2628092124128 350.1604406431385L1113.2628092124128 350.1604406431385Q1114.4754748643395 350.1604406431385 1116.0418346647452 350.76677346910196L1116.0418346647452 350.76677346910196Q1117.7429350931425 351.4910043445583 1117.7429350931425 354.03423369790505L1117.7429350931425 354.03423369790505Q1117.7429350931425 355.36479739932474 1117.254500316672 357.301693926708Q1116.7829081187006 359.2554330325903 1115.9239366152524 361.6807643364441L1115.9239366152524 361.6807643364441Q1119.0734987945625 357.1837958772152 1122.5935977008503 353.9668633839091Q1126.113696607138 350.76677346910196 1129.027462687462 350.76677346910196L1129.027462687462 350.76677346910196Q1133.625486617685 350.76677346910196 1133.625486617685 355.12900130033904L1133.625486617685 355.12900130033904Q1133.625486617685 357.79012870317865 1132.0591268172798 361.6807643364441L1132.0591268172798 361.6807643364441Q1131.5706920408093 363.0113280378639 1130.290656074886 365.85772380419223Q1129.027462687462 368.7041195705207 1127.7474267215393 372.1568481628126Q1126.4842333341157 375.6264193336034 1125.5073637811747 378.7759815129135Q1124.5304942282337 381.92554369222364 1124.5304942282337 383.9803382690998L1124.5304942282337 383.9803382690998Q1124.5304942282337 386.16987347396775 1125.8779005081524 386.16987347396775L1125.8779005081524 386.16987347396775Q1126.7200294331014 386.16987347396775 1128.117963448517 385.37827228451556Q1129.515897463933 384.58667109506325 1131.452793991316 382.76767261717293L1131.452793991316 382.76767261717293Q1134.9728928976037 379.6181104378628 1138.0550847629179 374.7674478301552Q1141.1541192067311 369.91678522244763 1145.3984489884756 361.79866238593695L1145.3984489884756 361.79866238593695Q1145.3984489884756 361.54602370845214 1145.6342450874613 361.54602370845214L1145.6342450874613 361.54602370845214Q1146.004781814439 361.54602370845214 1146.3584759629175 361.9165604354298Q1146.7290126898952 362.28709716240746 1146.4932165909095 362.5228932613933L1146.4932165909095 362.5228932613933Q1142.1141461811735 371.0115528248816 1138.5435195393889 376.6538166220414Q1134.9728928976037 382.2960804192013 1131.3854236773204 385.14247618552974Q1127.8147970355353 387.9888719518582 1123.4525692042985 387.9888719518582ZM1150.6028057446615 388.59520477782155L1150.6028057446615 388.59520477782155Q1145.3984489884756 388.59520477782155 1143.2089137836074 385.0245781360369Q1141.0362211572383 381.43710891575313 1141.0362211572383 376.83908498553023L1141.0362211572383 376.83908498553023Q1141.0362211572383 374.0432169546988 1141.6425539832017 371.3820895518593Q1142.2488868091655 368.7041195705207 1143.0910157341145 366.39668631615973L1143.0910157341145 366.39668631615973Q1144.4215794355346 363.12922608735676 1146.914281053384 359.42385881758014Q1149.3901400927348 355.7353341263025 1152.9102389990226 353.0573641449639Q1156.4303379053104 350.3962367421243 1160.5567696375615 350.3962367421243L1160.5567696375615 350.3962367421243Q1163.9421279158578 350.3962367421243 1165.2895341957765 352.2826055340106Q1166.620097897196 354.1521317473979 1166.620097897196 356.94799977822936L1166.620097897196 356.94799977822936Q1166.620097897196 357.4364345546999 1166.620097897196 357.8574990171745Q1166.620097897196 358.27856347964916 1166.5021998477032 358.88489630561264L1166.5021998477032 358.88489630561264Q1166.1316631207255 362.1523565344156 1163.9421279158578 365.6724554407034Q1161.7694352894887 369.1925543469912 1158.4851324821866 371.5505153368491Q1155.2176722533836 373.9253189052059 1151.4617772481101 373.9253189052059L1151.4617772481101 373.9253189052059Q1149.272242043242 373.9253189052059 1147.5711416148447 372.7126532532791L1147.5711416148447 372.7126532532791Q1146.4932165909095 376.83908498553023 1146.4932165909095 380.2244432638262L1146.4932165909095 380.2244432638262Q1146.4932165909095 383.02031129465763 1147.5206138793474 384.83930977254806Q1148.5480111677857 386.6583082504384 1150.7375463726535 386.6583082504384L1150.7375463726535 386.6583082504384Q1153.2807757260002 386.6583082504384 1156.8514023677849 384.4182453100734Q1160.4388715880687 382.16133979120946 1164.6158310558171 376.7043443575384Q1168.7927905235651 371.2473489238673 1173.171860933301 361.79866238593695L1173.171860933301 361.79866238593695Q1173.171860933301 361.6807643364441 1173.4076570322868 361.6807643364441L1173.4076570322868 361.6807643364441Q1173.7781937592645 361.6807643364441 1174.1992582217395 361.9839307494258Q1174.620322684214 362.28709716240746 1174.3845265852283 362.5228932613933L1174.3845265852283 362.5228932613933Q1168.4390963750866 375.98011348208206 1161.8199630249856 382.2960804192013Q1155.2176722533836 388.59520477782155 1150.6028057446615 388.59520477782155ZM1150.8554444221463 371.98842237782264L1150.8554444221463 371.98842237782264Q1153.516571824986 371.98842237782264 1156.0598011783327 369.9841555364435Q1158.6198731101786 367.97988869506435 1160.6746676870544 364.8808542512512Q1162.7294622639306 361.79866238593695 1163.9421279158578 358.6491002066268L1163.9421279158578 358.6491002066268Q1164.4305626923283 357.301693926708 1164.4305626923283 355.61743607680955L1164.4305626923283 355.61743607680955Q1164.4305626923283 354.03423369790505 1163.8916001803605 352.8889383599741Q1163.335795089894 351.7268004435441 1162.0052313884744 351.7268004435441L1162.0052313884744 351.7268004435441Q1159.8325387621053 351.7268004435441 1157.2724668302599 354.4552981603796Q1154.729237476913 357.1837958772152 1152.556544850544 360.8891631469918Q1150.3670096456758 364.5776878382694 1149.272242043242 367.6093519680867L1149.272242043242 367.6093519680867Q1148.9185478947634 368.46832347153486 1148.6153814817817 369.37782271048Q1148.3122150688 370.2873219494253 1148.0595763913152 371.2473489238673L1148.0595763913152 371.2473489238673Q1149.5248807207267 371.98842237782264 1150.8554444221463 371.98842237782264ZM1180.8015489933414 387.9888719518582L1180.8015489933414 387.9888719518582Q1175.7150902866479 387.9888719518582 1175.7150902866479 382.2960804192013L1175.7150902866479 382.2960804192013Q1175.7150902866479 380.1065452143333 1176.557219211597 377.07488108451605Q1177.4161907150456 374.0432169546988 1179.2351891929356 370.40521999891814L1179.2351891929356 370.40521999891814Q1180.195216167378 368.21568479405016 1181.8963165957753 365.1334929287359Q1183.5974170241725 362.03445848492277 1184.9953510395885 359.0027943551055Q1186.376442476505 355.9711302252882 1186.376442476505 354.1521317473979L1186.376442476505 354.1521317473979Q1186.376442476505 352.3331332695076 1184.439545949122 352.3331332695076L1184.439545949122 352.3331332695076Q1183.5974170241725 352.3331332695076 1182.266853322753 352.75419773198223Q1180.9194470428342 353.19210477295576 1178.6288563669723 353.79843759891924L1178.6288563669723 353.79843759891924Q1177.6519868140313 356.22376890277303 1175.529821923159 360.51862642001413Q1173.4076570322868 364.8303265157542 1170.8644276789405 369.31045239648415Q1168.3211983255937 373.8074208557131 1166.0137650712327 377.07488108451605L1166.0137650712327 377.07488108451605Q1166.0137650712327 377.07488108451605 1165.9463947572367 377.14225139851203Q1165.8958670217398 377.192779134009 1165.643228344255 377.192779134009L1165.643228344255 377.192779134009Q1165.4074322452693 377.192779134009 1164.9863677827948 377.0075107705202Q1164.5484607418211 376.83908498553023 1164.683201369813 376.7043443575384L1164.683201369813 376.7043443575384Q1166.620097897196 373.9253189052059 1168.6748924740723 370.2199516354293Q1170.7465296294472 366.5314269441517 1172.6160558428346 362.89342998837094Q1174.5024246347211 359.2554330325903 1175.7656180221447 356.6448333652477Q1177.045653988068 354.03423369790505 1177.1635520375607 353.5457989214344L1177.1635520375607 353.5457989214344Q1175.3445535596702 352.93946609547106 1174.3171562712323 350.6994031551061Q1173.289758982794 348.45934021474113 1173.289758982794 346.1519069603802L1173.289758982794 346.1519069603802Q1173.289758982794 344.09711238350405 1174.2497859572363 342.6318080540924Q1175.2266555101774 341.18334630317975 1177.1635520375607 341.18334630317975L1177.1635520375607 341.18334630317975Q1178.6288563669723 341.18334630317975 1179.1678188789397 342.69917836808827Q1179.7067813909075 344.2150104329969 1179.7067813909075 346.26980500987304L1179.7067813909075 346.26980500987304Q1179.7067813909075 348.94777499121165 1179.1004485649437 351.60890239405126L1179.1004485649437 351.60890239405126Q1179.1004485649437 351.60890239405126 1180.4478548448624 351.37310629506544Q1181.7784185462824 351.12046761758063 1183.5974170241725 350.9351992540918Q1185.416415502063 350.76677346910196 1186.746979203483 350.76677346910196L1186.746979203483 350.76677346910196Q1190.7555128862414 350.76677346910196 1190.7555128862414 354.6405665238684L1190.7555128862414 354.6405665238684Q1190.7555128862414 357.0658978277222 1189.4081066063222 360.8891631469918Q1188.0775429049027 364.71242846626126 1186.0227483280264 369.6809891234618L1186.0227483280264 369.6809891234618Q1181.8963165957753 379.50021238836985 1181.8963165957753 383.50874607112826L1181.8963165957753 383.50874607112826Q1181.8963165957753 385.93407737498205 1183.4795189746796 385.93407737498205L1183.4795189746796 385.93407737498205Q1185.416415502063 385.93407737498205 1188.9365144083508 382.76767261717293L1188.9365144083508 382.76767261717293Q1192.4397707361395 379.6181104378628 1195.42090713046 374.8348181441511Q1198.3852009462812 370.0346832719405 1202.7474287775185 361.9165604354298L1202.7474287775185 361.9165604354298Q1202.88216940551 361.6807643364441 1203.1179655044962 361.6807643364441L1203.1179655044962 361.6807643364441Q1203.4885022314738 361.6807643364441 1203.7916686444555 361.9839307494258Q1204.0948350574372 362.28709716240746 1203.9600944294452 362.5228932613933L1203.9600944294452 362.5228932613933Q1197.2904333438473 375.1379845571329 1192.3218726866467 381.555006965246Q1187.3533120294464 387.9888719518582 1180.8015489933414 387.9888719518582Z " fill="#ec8b5e" transform="matrix(0.7267432377030383,0,0,0.7267432377030382,0,37.726264390700706)"/></g></svg>